<svg width="362" height="123" viewBox="0 0 362 123" fill="none" xmlns="http://www.w3.org/2000/svg">
<rect width="361.074" height="123" fill="white"/>
<path d="M96.3359 68.7314C96.4521 68.6172 96.4536 68.4304 96.3394 68.3143L94.4778 66.4215C94.3636 66.3053 94.1768 66.3038 94.0606 66.418C93.9445 66.5323 93.9429 66.719 94.0572 66.8352L95.7119 68.5176L94.0295 70.1724C93.9133 70.2866 93.9118 70.4734 94.026 70.5895C94.1402 70.7057 94.327 70.7073 94.4431 70.593L96.3359 68.7314ZM25.0952 68.2261L25.6871 68.231L25.692 67.6411L25.1001 67.6362L25.0952 68.2261ZM26.871 68.2409L28.0548 68.2507L28.0597 67.6608L26.8759 67.6509L26.871 68.2409ZM29.2387 68.2605L30.4226 68.2704L30.4275 67.6804L29.2436 67.6706L29.2387 68.2605ZM31.6064 68.2802L32.7903 68.29L32.7952 67.7001L31.6113 67.6903L31.6064 68.2802ZM33.9741 68.2999L35.158 68.3097L35.1629 67.7198L33.979 67.7099L33.9741 68.2999ZM36.3418 68.3195L37.5257 68.3294L37.5306 67.7394L36.3467 67.7296L36.3418 68.3195ZM38.7096 68.3392L39.8934 68.349L39.8983 67.7591L38.7145 67.7493L38.7096 68.3392ZM41.0773 68.3589L42.2611 68.3687L42.266 67.7788L41.0822 67.7689L41.0773 68.3589ZM43.445 68.3785L44.6288 68.3884L44.6337 67.7984L43.4499 67.7886L43.445 68.3785ZM45.8127 68.3982L46.9966 68.408L47.0015 67.8181L45.8176 67.8083L45.8127 68.3982ZM48.1804 68.4179L49.3643 68.4277L49.3692 67.8378L48.1853 67.8279L48.1804 68.4179ZM50.5481 68.4375L51.732 68.4474L51.7369 67.8574L50.553 67.8476L50.5481 68.4375ZM52.9158 68.4572L54.0997 68.467L54.1046 67.8771L52.9207 67.8672L52.9158 68.4572ZM55.2836 68.4769L56.4674 68.4867L56.4723 67.8967L55.2885 67.8869L55.2836 68.4769ZM57.6513 68.4965L58.8351 68.5064L58.84 67.9164L57.6562 67.9066L57.6513 68.4965ZM60.019 68.5162L61.2028 68.526L61.2077 67.9361L60.0239 67.9262L60.019 68.5162ZM62.3867 68.5359L63.5706 68.5457L63.5755 67.9557L62.3916 67.9459L62.3867 68.5359ZM64.7544 68.5555L65.9383 68.5654L65.9432 67.9754L64.7593 67.9656L64.7544 68.5555ZM67.1221 68.5752L68.306 68.585L68.3109 67.9951L67.127 67.9852L67.1221 68.5752ZM69.4898 68.5948L70.6737 68.6047L70.6786 68.0147L69.4947 68.0049L69.4898 68.5948ZM71.8576 68.6145L73.0414 68.6243L73.0463 68.0344L71.8625 68.0246L71.8576 68.6145ZM74.2253 68.6342L75.4091 68.644L75.414 68.0541L74.2302 68.0442L74.2253 68.6342ZM76.593 68.6538L77.7769 68.6637L77.7818 68.0737L76.5979 68.0639L76.593 68.6538ZM78.9607 68.6735L80.1446 68.6833L80.1495 68.0934L78.9656 68.0836L78.9607 68.6735ZM81.3284 68.6932L82.5123 68.703L82.5172 68.1131L81.3333 68.1032L81.3284 68.6932ZM83.6961 68.7128L84.88 68.7227L84.8849 68.1327L83.701 68.1229L83.6961 68.7128ZM86.0639 68.7325L87.2477 68.7423L87.2526 68.1524L86.0688 68.1426L86.0639 68.7325ZM88.4316 68.7522L89.6154 68.762L89.6203 68.1721L88.4365 68.1622L88.4316 68.7522ZM90.7993 68.7718L91.9831 68.7817L91.988 68.1917L90.8042 68.1819L90.7993 68.7718ZM93.167 68.7915L94.3509 68.8013L94.3558 68.2114L93.1719 68.2016L93.167 68.7915ZM95.5347 68.8112L96.1266 68.8161L96.1315 68.2261L95.5396 68.2212L95.5347 68.8112ZM96.3359 68.7314C96.4521 68.6172 96.4536 68.4304 96.3394 68.3143L94.4778 66.4215C94.3636 66.3053 94.1768 66.3038 94.0606 66.418C93.9445 66.5323 93.9429 66.719 94.0572 66.8352L95.7119 68.5176L94.0295 70.1724C93.9133 70.2866 93.9118 70.4734 94.026 70.5895C94.1402 70.7057 94.327 70.7073 94.4431 70.593L96.3359 68.7314ZM25.0952 68.2261L25.6871 68.231L25.692 67.6411L25.1001 67.6362L25.0952 68.2261ZM26.871 68.2409L28.0548 68.2507L28.0597 67.6608L26.8759 67.6509L26.871 68.2409ZM29.2387 68.2605L30.4226 68.2704L30.4275 67.6804L29.2436 67.6706L29.2387 68.2605ZM31.6064 68.2802L32.7903 68.29L32.7952 67.7001L31.6113 67.6903L31.6064 68.2802ZM33.9741 68.2999L35.158 68.3097L35.1629 67.7198L33.979 67.7099L33.9741 68.2999ZM36.3418 68.3195L37.5257 68.3294L37.5306 67.7394L36.3467 67.7296L36.3418 68.3195ZM38.7096 68.3392L39.8934 68.349L39.8983 67.7591L38.7145 67.7493L38.7096 68.3392ZM41.0773 68.3589L42.2611 68.3687L42.266 67.7788L41.0822 67.7689L41.0773 68.3589ZM43.445 68.3785L44.6288 68.3884L44.6337 67.7984L43.4499 67.7886L43.445 68.3785ZM45.8127 68.3982L46.9966 68.408L47.0015 67.8181L45.8176 67.8083L45.8127 68.3982ZM48.1804 68.4179L49.3643 68.4277L49.3692 67.8378L48.1853 67.8279L48.1804 68.4179ZM50.5481 68.4375L51.732 68.4474L51.7369 67.8574L50.553 67.8476L50.5481 68.4375ZM52.9158 68.4572L54.0997 68.467L54.1046 67.8771L52.9207 67.8672L52.9158 68.4572ZM55.2836 68.4769L56.4674 68.4867L56.4723 67.8967L55.2885 67.8869L55.2836 68.4769ZM57.6513 68.4965L58.8351 68.5064L58.84 67.9164L57.6562 67.9066L57.6513 68.4965ZM60.019 68.5162L61.2028 68.526L61.2077 67.9361L60.0239 67.9262L60.019 68.5162ZM62.3867 68.5359L63.5706 68.5457L63.5755 67.9557L62.3916 67.9459L62.3867 68.5359ZM64.7544 68.5555L65.9383 68.5654L65.9432 67.9754L64.7593 67.9656L64.7544 68.5555ZM67.1221 68.5752L68.306 68.585L68.3109 67.9951L67.127 67.9852L67.1221 68.5752ZM69.4898 68.5948L70.6737 68.6047L70.6786 68.0147L69.4947 68.0049L69.4898 68.5948ZM71.8576 68.6145L73.0414 68.6243L73.0463 68.0344L71.8625 68.0246L71.8576 68.6145ZM74.2253 68.6342L75.4091 68.644L75.414 68.0541L74.2302 68.0442L74.2253 68.6342ZM76.593 68.6538L77.7769 68.6637L77.7818 68.0737L76.5979 68.0639L76.593 68.6538ZM78.9607 68.6735L80.1446 68.6833L80.1495 68.0934L78.9656 68.0836L78.9607 68.6735ZM81.3284 68.6932L82.5123 68.703L82.5172 68.1131L81.3333 68.1032L81.3284 68.6932ZM83.6961 68.7128L84.88 68.7227L84.8849 68.1327L83.701 68.1229L83.6961 68.7128ZM86.0639 68.7325L87.2477 68.7423L87.2526 68.1524L86.0688 68.1426L86.0639 68.7325ZM88.4316 68.7522L89.6154 68.762L89.6203 68.1721L88.4365 68.1622L88.4316 68.7522ZM90.7993 68.7718L91.9831 68.7817L91.988 68.1917L90.8042 68.1819L90.7993 68.7718ZM93.167 68.7915L94.3509 68.8013L94.3558 68.2114L93.1719 68.2016L93.167 68.7915ZM95.5347 68.8112L96.1266 68.8161L96.1315 68.2261L95.5396 68.2212L95.5347 68.8112Z" fill="black"/>
<path d="M92.5615 43.952C92.6767 43.8368 92.6767 43.65 92.5615 43.5348L90.6842 41.6576C90.569 41.5424 90.3822 41.5424 90.267 41.6576C90.1518 41.7728 90.1518 41.9596 90.267 42.0747L91.9357 43.7434L90.2671 45.4121C90.1519 45.5273 90.1519 45.714 90.2671 45.8292C90.3823 45.9444 90.569 45.9444 90.6842 45.8292L92.5615 43.952ZM28.1655 44.0389L92.3529 44.0384L92.3529 43.4484L28.1655 43.449L28.1655 44.0389Z" fill="black"/>
<path d="M96.1289 86.6914L90.2395 83.3069L90.2192 90.1192L96.1289 86.6914ZM23.5984 86.9572L29.4879 90.3417L29.5081 83.5294L23.5984 86.9572ZM90.821 86.1209L28.9098 86.3478L28.9063 87.5277L90.8175 87.3008L90.821 86.1209Z" fill="#294146"/>
<path d="M43.3892 40.8931V36.7741H46.1165V37.4921H44.2601V38.4736H45.9355V39.1916H44.2601V40.8931H43.3892ZM47.543 36.7741V40.8931H46.6862V36.7741H47.543ZM49.6251 40.9534C49.3127 40.9534 49.0425 40.887 48.8146 40.7543C48.588 40.6202 48.413 40.4338 48.2896 40.1952C48.1663 39.9552 48.1046 39.6769 48.1046 39.3605C48.1046 39.0414 48.1663 38.7625 48.2896 38.5238C48.413 38.2838 48.588 38.0975 48.8146 37.9647C49.0425 37.8306 49.3127 37.7636 49.6251 37.7636C49.9375 37.7636 50.207 37.8306 50.4336 37.9647C50.6615 38.0975 50.8372 38.2838 50.9605 38.5238C51.0839 38.7625 51.1456 39.0414 51.1456 39.3605C51.1456 39.6769 51.0839 39.9552 50.9605 40.1952C50.8372 40.4338 50.6615 40.6202 50.4336 40.7543C50.207 40.887 49.9375 40.9534 49.6251 40.9534ZM49.6291 40.2897C49.7712 40.2897 49.8899 40.2495 49.9851 40.169C50.0803 40.0872 50.152 39.9759 50.2003 39.8352C50.2499 39.6944 50.2747 39.5341 50.2747 39.3545C50.2747 39.1748 50.2499 39.0146 50.2003 38.8738C50.152 38.733 50.0803 38.6217 49.9851 38.5399C49.8899 38.4581 49.7712 38.4172 49.6291 38.4172C49.4856 38.4172 49.365 38.4581 49.2671 38.5399C49.1705 38.6217 49.0975 38.733 49.0479 38.8738C48.9996 39.0146 48.9755 39.1748 48.9755 39.3545C48.9755 39.5341 48.9996 39.6944 49.0479 39.8352C49.0975 39.9759 49.1705 40.0872 49.2671 40.169C49.365 40.2495 49.4856 40.2897 49.6291 40.2897ZM49.0117 37.3815C48.8963 37.3815 48.7971 37.3412 48.714 37.2608C48.6309 37.179 48.5893 37.0824 48.5893 36.9712C48.5893 36.8572 48.6309 36.7607 48.714 36.6815C48.7971 36.6024 48.8963 36.5629 49.0117 36.5629C49.1283 36.5629 49.2269 36.6024 49.3073 36.6815C49.3891 36.7607 49.43 36.8572 49.43 36.9712C49.43 37.0824 49.3891 37.179 49.3073 37.2608C49.2269 37.3412 49.1283 37.3815 49.0117 37.3815ZM50.2425 37.3815C50.1272 37.3815 50.028 37.3412 49.9449 37.2608C49.8617 37.179 49.8202 37.0824 49.8202 36.9712C49.8202 36.8572 49.8617 36.7607 49.9449 36.6815C50.028 36.6024 50.1272 36.5629 50.2425 36.5629C50.3592 36.5629 50.4577 36.6024 50.5382 36.6815C50.62 36.7607 50.6609 36.8572 50.6609 36.9712C50.6609 37.0824 50.62 37.179 50.5382 37.2608C50.4577 37.3412 50.3592 37.3815 50.2425 37.3815ZM52.841 40.9433C52.6064 40.9433 52.3939 40.883 52.2035 40.7623C52.0144 40.6403 51.8643 40.4613 51.753 40.2253C51.643 39.988 51.588 39.6971 51.588 39.3525C51.588 38.9985 51.645 38.7042 51.759 38.4695C51.873 38.2335 52.0245 38.0572 52.2135 37.9406C52.4039 37.8226 52.6124 37.7636 52.839 37.7636C53.012 37.7636 53.1561 37.7931 53.2714 37.8521C53.3881 37.9097 53.482 37.9821 53.553 38.0693C53.6254 38.1551 53.6804 38.2396 53.7179 38.3227H53.7441V36.7741H54.5989V40.8931H53.7541V40.3983H53.7179C53.6777 40.4841 53.6207 40.5693 53.547 40.6537C53.4746 40.7369 53.3801 40.8059 53.2634 40.8609C53.1481 40.9159 53.0073 40.9433 52.841 40.9433ZM53.1126 40.2615C53.2507 40.2615 53.3673 40.224 53.4625 40.1489C53.5591 40.0725 53.6328 39.9659 53.6837 39.8291C53.736 39.6924 53.7622 39.5321 53.7622 39.3484C53.7622 39.1647 53.7367 39.0052 53.6858 38.8698C53.6348 38.7343 53.5611 38.6298 53.4645 38.556C53.368 38.4823 53.2507 38.4454 53.1126 38.4454C52.9718 38.4454 52.8531 38.4836 52.7566 38.56C52.66 38.6365 52.587 38.7424 52.5373 38.8778C52.4877 39.0132 52.4629 39.1701 52.4629 39.3484C52.4629 39.5281 52.4877 39.687 52.5373 39.8251C52.5883 39.9619 52.6614 40.0691 52.7566 40.1469C52.8531 40.2233 52.9718 40.2615 53.1126 40.2615ZM56.7112 40.9534C56.3934 40.9534 56.1199 40.889 55.8906 40.7603C55.6626 40.6303 55.487 40.4466 55.3636 40.2092C55.2403 39.9706 55.1786 39.6883 55.1786 39.3625C55.1786 39.0447 55.2403 38.7659 55.3636 38.5258C55.487 38.2858 55.6606 38.0988 55.8845 37.9647C56.1098 37.8306 56.3739 37.7636 56.677 37.7636C56.8808 37.7636 57.0705 37.7964 57.2461 37.8621C57.4231 37.9265 57.5773 38.0237 57.7087 38.1538C57.8415 38.2838 57.9447 38.4474 58.0185 38.6445C58.0922 38.8403 58.1291 39.0695 58.1291 39.3323V39.5677H55.5205V39.0367H57.3226C57.3226 38.9133 57.2958 38.8041 57.2421 38.7089C57.1885 38.6137 57.1141 38.5393 57.0189 38.4856C56.925 38.4306 56.8157 38.4032 56.691 38.4032C56.561 38.4032 56.4457 38.4333 56.3451 38.4937C56.2459 38.5527 56.1681 38.6324 56.1118 38.733C56.0555 38.8322 56.0267 38.9428 56.0253 39.0649V39.5697C56.0253 39.7225 56.0535 39.8546 56.1098 39.9659C56.1675 40.0772 56.2486 40.163 56.3532 40.2233C56.4577 40.2837 56.5818 40.3138 56.7252 40.3138C56.8204 40.3138 56.9076 40.3004 56.9867 40.2736C57.0658 40.2468 57.1335 40.2066 57.1898 40.1529C57.2461 40.0993 57.2891 40.0336 57.3186 39.9558L58.111 40.0081C58.0708 40.1985 57.9883 40.3648 57.8636 40.5069C57.7402 40.6477 57.5807 40.7576 57.3849 40.8368C57.1905 40.9145 56.9659 40.9534 56.7112 40.9534ZM61.2586 38.6847L60.4742 38.733C60.4608 38.666 60.4319 38.6056 60.3877 38.552C60.3434 38.497 60.2851 38.4534 60.2127 38.4213C60.1417 38.3877 60.0565 38.371 59.9573 38.371C59.8245 38.371 59.7126 38.3991 59.6214 38.4555C59.5302 38.5104 59.4847 38.5842 59.4847 38.6767C59.4847 38.7504 59.5141 38.8128 59.5731 38.8637C59.6321 38.9147 59.7334 38.9556 59.8768 38.9864L60.436 39.099C60.7363 39.1607 60.9602 39.2599 61.1077 39.3967C61.2552 39.5335 61.329 39.7131 61.329 39.9357C61.329 40.1382 61.2693 40.3158 61.15 40.4687C61.032 40.6215 60.8697 40.7409 60.6632 40.8267C60.4581 40.9112 60.2214 40.9534 59.9533 40.9534C59.5443 40.9534 59.2185 40.8683 58.9758 40.698C58.7345 40.5264 58.593 40.293 58.5514 39.9981L59.3941 39.9538C59.4196 40.0785 59.4813 40.1737 59.5792 40.2394C59.6771 40.3038 59.8024 40.336 59.9553 40.336C60.1055 40.336 60.2261 40.3071 60.3173 40.2495C60.4098 40.1905 60.4567 40.1147 60.4581 40.0222C60.4567 39.9444 60.4239 39.8807 60.3595 39.8311C60.2952 39.7802 60.196 39.7413 60.0619 39.7145L59.5269 39.6079C59.2252 39.5476 59.0006 39.443 58.8531 39.2941C58.707 39.1453 58.6339 38.9556 58.6339 38.725C58.6339 38.5265 58.6875 38.3556 58.7948 38.2121C58.9034 38.0686 59.0556 37.958 59.2513 37.8802C59.4484 37.8025 59.6791 37.7636 59.9432 37.7636C60.3334 37.7636 60.6404 37.846 60.8644 38.011C61.0896 38.1759 61.221 38.4005 61.2586 38.6847ZM62.7253 36.7741V40.8931H61.8685V36.7741H62.7253ZM63.4116 40.8931V37.8038H64.2684V40.8931H63.4116ZM63.842 37.4056C63.7146 37.4056 63.6053 37.3634 63.5142 37.2789C63.4243 37.1931 63.3794 37.0905 63.3794 36.9712C63.3794 36.8532 63.4243 36.7519 63.5142 36.6675C63.6053 36.5817 63.7146 36.5387 63.842 36.5387C63.9694 36.5387 64.078 36.5817 64.1678 36.6675C64.259 36.7519 64.3046 36.8532 64.3046 36.9712C64.3046 37.0905 64.259 37.1931 64.1678 37.2789C64.078 37.3634 63.9694 37.4056 63.842 37.4056ZM65.8115 39.1071V40.8931H64.9547V37.8038H65.7713V38.3489H65.8075C65.8758 38.1692 65.9905 38.0271 66.1514 37.9225C66.3123 37.8165 66.5074 37.7636 66.7367 37.7636C66.9512 37.7636 67.1382 37.8105 67.2978 37.9044C67.4573 37.9982 67.5814 38.1323 67.6699 38.3066C67.7584 38.4796 67.8026 38.6861 67.8026 38.9261V40.8931H66.9458V39.0789C66.9472 38.8899 66.8989 38.7424 66.801 38.6365C66.7031 38.5292 66.5684 38.4756 66.3968 38.4756C66.2814 38.4756 66.1795 38.5004 66.0911 38.55C66.0039 38.5996 65.9355 38.672 65.8859 38.7672C65.8376 38.861 65.8128 38.9743 65.8115 39.1071ZM68.4779 37.8038H69.3347V41.0459C69.3347 41.2846 69.2877 41.4777 69.1939 41.6252C69.1 41.7726 68.9653 41.8806 68.7896 41.949C68.6153 42.0173 68.4068 42.0515 68.1641 42.0515C68.1346 42.0515 68.1065 42.0509 68.0797 42.0495C68.0515 42.0495 68.022 42.0489 67.9912 42.0475V41.3778C68.014 41.3791 68.0341 41.3798 68.0515 41.3798C68.0676 41.3811 68.085 41.3818 68.1038 41.3818C68.2419 41.3818 68.3384 41.3523 68.3934 41.2933C68.4497 41.2356 68.4779 41.1485 68.4779 41.0318V37.8038ZM68.9043 37.4056C68.7782 37.4056 68.6696 37.3634 68.5784 37.2789C68.4873 37.1931 68.4417 37.0905 68.4417 36.9712C68.4417 36.8532 68.4873 36.7519 68.5784 36.6675C68.6696 36.5817 68.7782 36.5387 68.9043 36.5387C69.033 36.5387 69.1423 36.5817 69.2321 36.6675C69.3233 36.7519 69.3689 36.8532 69.3689 36.9712C69.3689 37.0905 69.3233 37.1931 69.2321 37.2789C69.1423 37.3634 69.033 37.4056 68.9043 37.4056ZM71.4289 40.9534C71.1111 40.9534 70.8376 40.889 70.6083 40.7603C70.3803 40.6303 70.2047 40.4466 70.0813 40.2092C69.958 39.9706 69.8963 39.6883 69.8963 39.3625C69.8963 39.0447 69.958 38.7659 70.0813 38.5258C70.2047 38.2858 70.3783 38.0988 70.6022 37.9647C70.8275 37.8306 71.0916 37.7636 71.3947 37.7636C71.5985 37.7636 71.7882 37.7964 71.9639 37.8621C72.1408 37.9265 72.295 38.0237 72.4264 38.1538C72.5592 38.2838 72.6624 38.4474 72.7362 38.6445C72.8099 38.8403 72.8468 39.0695 72.8468 39.3323V39.5677H70.2382V39.0367H72.0403C72.0403 38.9133 72.0135 38.8041 71.9598 38.7089C71.9062 38.6137 71.8318 38.5393 71.7366 38.4856C71.6427 38.4306 71.5335 38.4032 71.4088 38.4032C71.2787 38.4032 71.1634 38.4333 71.0628 38.4937C70.9636 38.5527 70.8858 38.6324 70.8295 38.733C70.7732 38.8322 70.7444 38.9428 70.743 39.0649V39.5697C70.743 39.7225 70.7712 39.8546 70.8275 39.9659C70.8852 40.0772 70.9663 40.163 71.0709 40.2233C71.1755 40.2837 71.2995 40.3138 71.4429 40.3138C71.5381 40.3138 71.6253 40.3004 71.7044 40.2736C71.7835 40.2468 71.8512 40.2066 71.9075 40.1529C71.9639 40.0993 72.0068 40.0336 72.0363 39.9558L72.8287 40.0081C72.7885 40.1985 72.706 40.3648 72.5813 40.5069C72.4579 40.6477 72.2984 40.7576 72.1026 40.8368C71.9082 40.9145 71.6836 40.9534 71.4289 40.9534Z" fill="black"/>
<path d="M25.4557 60.2437V56.1246H28.1829V56.8427H26.3265V57.8241H28.0019V58.5421H26.3265V60.2437H25.4557ZM29.6094 56.1246V60.2437H28.7526V56.1246H29.6094ZM31.6915 60.304C31.3791 60.304 31.1089 60.2376 30.881 60.1049C30.6544 59.9708 30.4794 59.7844 30.356 59.5458C30.2327 59.3057 30.171 59.0275 30.171 58.7111C30.171 58.392 30.2327 58.1131 30.356 57.8744C30.4794 57.6344 30.6544 57.448 30.881 57.3153C31.1089 57.1812 31.3791 57.1142 31.6915 57.1142C32.0039 57.1142 32.2734 57.1812 32.5 57.3153C32.7279 57.448 32.9036 57.6344 33.0269 57.8744C33.1503 58.1131 33.212 58.392 33.212 58.7111C33.212 59.0275 33.1503 59.3057 33.0269 59.5458C32.9036 59.7844 32.7279 59.9708 32.5 60.1049C32.2734 60.2376 32.0039 60.304 31.6915 60.304ZM31.6955 59.6403C31.8376 59.6403 31.9563 59.6001 32.0515 59.5196C32.1467 59.4378 32.2184 59.3265 32.2667 59.1857C32.3163 59.045 32.3411 58.8847 32.3411 58.7051C32.3411 58.5254 32.3163 58.3652 32.2667 58.2244C32.2184 58.0836 32.1467 57.9723 32.0515 57.8905C31.9563 57.8087 31.8376 57.7678 31.6955 57.7678C31.552 57.7678 31.4314 57.8087 31.3335 57.8905C31.2369 57.9723 31.1639 58.0836 31.1143 58.2244C31.066 58.3652 31.0419 58.5254 31.0419 58.7051C31.0419 58.8847 31.066 59.045 31.1143 59.1857C31.1639 59.3265 31.2369 59.4378 31.3335 59.5196C31.4314 59.6001 31.552 59.6403 31.6955 59.6403ZM31.0781 56.732C30.9627 56.732 30.8635 56.6918 30.7804 56.6114C30.6973 56.5296 30.6557 56.433 30.6557 56.3217C30.6557 56.2078 30.6973 56.1112 30.7804 56.0321C30.8635 55.953 30.9627 55.9135 31.0781 55.9135C31.1947 55.9135 31.2933 55.953 31.3737 56.0321C31.4555 56.1112 31.4964 56.2078 31.4964 56.3217C31.4964 56.433 31.4555 56.5296 31.3737 56.6114C31.2933 56.6918 31.1947 56.732 31.0781 56.732ZM32.3089 56.732C32.1936 56.732 32.0944 56.6918 32.0113 56.6114C31.9281 56.5296 31.8866 56.433 31.8866 56.3217C31.8866 56.2078 31.9281 56.1112 32.0113 56.0321C32.0944 55.953 32.1936 55.9135 32.3089 55.9135C32.4256 55.9135 32.5241 55.953 32.6046 56.0321C32.6864 56.1112 32.7273 56.2078 32.7273 56.3217C32.7273 56.433 32.6864 56.5296 32.6046 56.6114C32.5241 56.6918 32.4256 56.732 32.3089 56.732ZM34.9074 60.2939C34.6728 60.2939 34.4603 60.2336 34.2699 60.1129C34.0808 59.9909 33.9307 59.8119 33.8194 59.5759C33.7094 59.3386 33.6545 59.0476 33.6545 58.703C33.6545 58.3491 33.7114 58.0548 33.8254 57.8201C33.9394 57.5841 34.0909 57.4078 34.2799 57.2912C34.4703 57.1732 34.6788 57.1142 34.9054 57.1142C35.0784 57.1142 35.2225 57.1437 35.3379 57.2027C35.4545 57.2603 35.5484 57.3327 35.6194 57.4199C35.6918 57.5057 35.7468 57.5902 35.7843 57.6733H35.8105V56.1246H36.6653V60.2437H35.8205V59.7489H35.7843C35.7441 59.8347 35.6871 59.9198 35.6134 60.0043C35.541 60.0874 35.4465 60.1565 35.3298 60.2115C35.2145 60.2664 35.0737 60.2939 34.9074 60.2939ZM35.179 59.6121C35.3171 59.6121 35.4337 59.5746 35.5289 59.4995C35.6255 59.4231 35.6992 59.3165 35.7502 59.1797C35.8024 59.0429 35.8286 58.8827 35.8286 58.699C35.8286 58.5153 35.8031 58.3558 35.7522 58.2204C35.7012 58.0849 35.6275 57.9803 35.5309 57.9066C35.4344 57.8329 35.3171 57.796 35.179 57.796C35.0382 57.796 34.9195 57.8342 34.823 57.9106C34.7264 57.987 34.6534 58.093 34.6038 58.2284C34.5541 58.3638 34.5293 58.5207 34.5293 58.699C34.5293 58.8787 34.5541 59.0376 34.6038 59.1757C34.6547 59.3125 34.7278 59.4197 34.823 59.4975C34.9195 59.5739 35.0382 59.6121 35.179 59.6121ZM38.7776 60.304C38.4598 60.304 38.1863 60.2396 37.957 60.1109C37.729 59.9809 37.5534 59.7972 37.43 59.5598C37.3067 59.3212 37.245 59.0389 37.245 58.7131C37.245 58.3953 37.3067 58.1164 37.43 57.8764C37.5534 57.6364 37.727 57.4494 37.9509 57.3153C38.1762 57.1812 38.4403 57.1142 38.7434 57.1142C38.9472 57.1142 39.1369 57.147 39.3126 57.2127C39.4895 57.2771 39.6437 57.3743 39.7751 57.5044C39.9079 57.6344 40.0111 57.798 40.0849 57.9951C40.1586 58.1909 40.1955 58.4201 40.1955 58.6829V58.9182H37.5869V58.3873H39.389C39.389 58.2639 39.3622 58.1547 39.3085 58.0595C39.2549 57.9643 39.1805 57.8898 39.0853 57.8362C38.9914 57.7812 38.8821 57.7537 38.7575 57.7537C38.6274 57.7537 38.5121 57.7839 38.4115 57.8443C38.3123 57.9032 38.2345 57.983 38.1782 58.0836C38.1219 58.1828 38.0931 58.2934 38.0917 58.4154V58.9203C38.0917 59.0731 38.1199 59.2052 38.1762 59.3165C38.2339 59.4278 38.315 59.5136 38.4196 59.5739C38.5241 59.6342 38.6482 59.6644 38.7916 59.6644C38.8868 59.6644 38.974 59.651 39.0531 59.6242C39.1322 59.5974 39.1999 59.5572 39.2562 59.5035C39.3126 59.4499 39.3555 59.3842 39.385 59.3064L40.1774 59.3587C40.1372 59.5491 40.0547 59.7154 39.93 59.8575C39.8066 59.9983 39.6471 60.1082 39.4513 60.1873C39.2569 60.2651 39.0323 60.304 38.7776 60.304ZM43.325 58.0353L42.5406 58.0836C42.5272 58.0165 42.4983 57.9562 42.4541 57.9026C42.4099 57.8476 42.3515 57.804 42.2791 57.7718C42.2081 57.7383 42.1229 57.7216 42.0237 57.7216C41.891 57.7216 41.779 57.7497 41.6878 57.806C41.5966 57.861 41.5511 57.9348 41.5511 58.0273C41.5511 58.101 41.5806 58.1634 41.6396 58.2143C41.6985 58.2653 41.7998 58.3062 41.9432 58.337L42.5024 58.4496C42.8027 58.5113 43.0266 58.6105 43.1741 58.7473C43.3216 58.8841 43.3954 59.0637 43.3954 59.2863C43.3954 59.4888 43.3357 59.6664 43.2164 59.8193C43.0984 59.9721 42.9361 60.0915 42.7296 60.1773C42.5245 60.2618 42.2878 60.304 42.0197 60.304C41.6107 60.304 41.2849 60.2188 41.0422 60.0486C40.8009 59.8769 40.6594 59.6436 40.6178 59.3487L41.4606 59.3044C41.486 59.4291 41.5477 59.5243 41.6456 59.59C41.7435 59.6544 41.8688 59.6865 42.0217 59.6865C42.1719 59.6865 42.2925 59.6577 42.3837 59.6001C42.4762 59.5411 42.5232 59.4653 42.5245 59.3728C42.5232 59.295 42.4903 59.2313 42.4259 59.1817C42.3616 59.1308 42.2624 59.0919 42.1283 59.0651L41.5933 58.9585C41.2916 58.8981 41.067 58.7936 40.9195 58.6447C40.7734 58.4959 40.7003 58.3062 40.7003 58.0755C40.7003 57.8771 40.7539 57.7061 40.8612 57.5627C40.9698 57.4192 41.122 57.3086 41.3178 57.2308C41.5149 57.1531 41.7455 57.1142 42.0096 57.1142C42.3998 57.1142 42.7068 57.1966 42.9308 57.3616C43.156 57.5265 43.2874 57.7511 43.325 58.0353ZM44.7917 56.1246V60.2437H43.9349V56.1246H44.7917ZM45.478 60.2437V57.1544H46.3348V60.2437H45.478ZM45.9084 56.7562C45.781 56.7562 45.6717 56.7139 45.5806 56.6295C45.4907 56.5437 45.4458 56.4411 45.4458 56.3217C45.4458 56.2038 45.4907 56.1025 45.5806 56.0181C45.6717 55.9322 45.781 55.8893 45.9084 55.8893C46.0358 55.8893 46.1444 55.9322 46.2342 56.0181C46.3254 56.1025 46.371 56.2038 46.371 56.3217C46.371 56.4411 46.3254 56.5437 46.2342 56.6295C46.1444 56.7139 46.0358 56.7562 45.9084 56.7562ZM47.8779 58.4577V60.2437H47.0211V57.1544H47.8377V57.6994H47.8739C47.9423 57.5198 48.0569 57.3776 48.2178 57.2731C48.3787 57.1671 48.5738 57.1142 48.8031 57.1142C49.0176 57.1142 49.2046 57.1611 49.3642 57.255C49.5238 57.3488 49.6478 57.4829 49.7363 57.6572C49.8248 57.8302 49.869 58.0367 49.869 58.2767V60.2437H49.0122V58.4295C49.0136 58.2405 48.9653 58.093 48.8674 57.987C48.7695 57.8798 48.6348 57.8261 48.4632 57.8261C48.3479 57.8261 48.246 57.851 48.1575 57.9006C48.0703 57.9502 48.0019 58.0226 47.9523 58.1178C47.904 58.2116 47.8792 58.3249 47.8779 58.4577ZM50.5443 57.1544H51.4011V60.3965C51.4011 60.6352 51.3541 60.8283 51.2603 60.9757C51.1664 61.1232 51.0317 61.2312 50.856 61.2996C50.6817 61.3679 50.4732 61.4021 50.2305 61.4021C50.201 61.4021 50.1729 61.4015 50.1461 61.4001C50.1179 61.4001 50.0884 61.3994 50.0576 61.3981V60.7284C50.0804 60.7297 50.1005 60.7304 50.1179 60.7304C50.134 60.7317 50.1514 60.7324 50.1702 60.7324C50.3083 60.7324 50.4048 60.7029 50.4598 60.6439C50.5161 60.5862 50.5443 60.4991 50.5443 60.3824V57.1544ZM50.9707 56.7562C50.8446 56.7562 50.736 56.7139 50.6449 56.6295C50.5537 56.5437 50.5081 56.4411 50.5081 56.3217C50.5081 56.2038 50.5537 56.1025 50.6449 56.0181C50.736 55.9322 50.8446 55.8893 50.9707 55.8893C51.0994 55.8893 51.2087 55.9322 51.2985 56.0181C51.3897 56.1025 51.4353 56.2038 51.4353 56.3217C51.4353 56.4411 51.3897 56.5437 51.2985 56.6295C51.2087 56.7139 51.0994 56.7562 50.9707 56.7562ZM53.4953 60.304C53.1775 60.304 52.904 60.2396 52.6747 60.1109C52.4467 59.9809 52.2711 59.7972 52.1477 59.5598C52.0244 59.3212 51.9627 59.0389 51.9627 58.7131C51.9627 58.3953 52.0244 58.1164 52.1477 57.8764C52.2711 57.6364 52.4447 57.4494 52.6687 57.3153C52.8939 57.1812 53.1581 57.1142 53.4611 57.1142C53.6649 57.1142 53.8546 57.147 54.0303 57.2127C54.2072 57.2771 54.3614 57.3743 54.4928 57.5044C54.6256 57.6344 54.7288 57.798 54.8026 57.9951C54.8763 58.1909 54.9132 58.4201 54.9132 58.6829V58.9182H52.3046V58.3873H54.1067C54.1067 58.2639 54.0799 58.1547 54.0262 58.0595C53.9726 57.9643 53.8982 57.8898 53.803 57.8362C53.7091 57.7812 53.5999 57.7537 53.4752 57.7537C53.3451 57.7537 53.2298 57.7839 53.1292 57.8443C53.03 57.9032 52.9522 57.983 52.8959 58.0836C52.8396 58.1828 52.8108 58.2934 52.8094 58.4154V58.9203C52.8094 59.0731 52.8376 59.2052 52.8939 59.3165C52.9516 59.4278 53.0327 59.5136 53.1373 59.5739C53.2419 59.6342 53.3659 59.6644 53.5094 59.6644C53.6045 59.6644 53.6917 59.651 53.7708 59.6242C53.8499 59.5974 53.9176 59.5572 53.9739 59.5035C54.0303 59.4499 54.0732 59.3842 54.1027 59.3064L54.8951 59.3587C54.8549 59.5491 54.7724 59.7154 54.6477 59.8575C54.5244 59.9983 54.3648 60.1082 54.169 60.1873C53.9746 60.2651 53.75 60.304 53.4953 60.304ZM58.4263 57.1544V57.798H56.5659V57.1544H58.4263ZM56.9883 56.4143H57.8451V59.2943C57.8451 59.3735 57.8571 59.4351 57.8813 59.4794C57.9054 59.5223 57.9389 59.5525 57.9818 59.5699C58.0261 59.5873 58.077 59.596 58.1347 59.596C58.1749 59.596 58.2151 59.5927 58.2554 59.586C58.2956 59.5779 58.3264 59.5719 58.3479 59.5679L58.4826 60.2054C58.4397 60.2188 58.3794 60.2343 58.3016 60.2517C58.2239 60.2705 58.1293 60.2819 58.018 60.2859C57.8115 60.2939 57.6305 60.2664 57.475 60.2034C57.3208 60.1404 57.2008 60.0425 57.115 59.9098C57.0292 59.777 56.9869 59.6094 56.9883 59.407V56.4143ZM58.9844 60.2437V57.1544H59.8412V60.2437H58.9844ZM59.4148 56.7562C59.2875 56.7562 59.1782 56.7139 59.087 56.6295C58.9972 56.5437 58.9523 56.4411 58.9523 56.3217C58.9523 56.2038 58.9972 56.1025 59.087 56.0181C59.1782 55.9322 59.2875 55.8893 59.4148 55.8893C59.5422 55.8893 59.6508 55.9322 59.7407 56.0181C59.8318 56.1025 59.8774 56.2038 59.8774 56.3217C59.8774 56.4411 59.8318 56.5437 59.7407 56.6295C59.6508 56.7139 59.5422 56.7562 59.4148 56.7562ZM61.3843 56.1246V60.2437H60.5276V56.1246H61.3843ZM62.9275 56.1246V60.2437H62.0707V56.1246H62.9275ZM26.3205 67.302C26.1234 67.302 25.9477 67.2678 25.7935 67.1994C25.6393 67.1297 25.5173 67.0271 25.4275 66.8917C25.339 66.7549 25.2948 66.5846 25.2948 66.3808C25.2948 66.2092 25.3263 66.0651 25.3893 65.9484C25.4523 65.8318 25.5381 65.7379 25.6467 65.6668C25.7553 65.5958 25.8787 65.5421 26.0168 65.5059C26.1562 65.4697 26.3024 65.4443 26.4552 65.4295C26.6349 65.4107 26.7797 65.3933 26.8897 65.3772C26.9996 65.3598 27.0794 65.3343 27.129 65.3008C27.1786 65.2673 27.2034 65.2177 27.2034 65.152V65.1399C27.2034 65.0125 27.1632 64.914 27.0827 64.8443C27.0036 64.7745 26.891 64.7397 26.7449 64.7397C26.5907 64.7397 26.468 64.7739 26.3768 64.8422C26.2856 64.9093 26.2253 64.9938 26.1958 65.0957L25.4034 65.0313C25.4436 64.8436 25.5227 64.6813 25.6407 64.5446C25.7587 64.4065 25.9109 64.3005 26.0972 64.2268C26.285 64.1517 26.5022 64.1142 26.7489 64.1142C26.9205 64.1142 27.0848 64.1343 27.2416 64.1745C27.3998 64.2147 27.54 64.2771 27.662 64.3616C27.7853 64.446 27.8825 64.5546 27.9536 64.6874C28.0247 64.8188 28.0602 64.9763 28.0602 65.16V67.2437H27.2477V66.8153H27.2235C27.1739 66.9118 27.1075 66.9969 27.0244 67.0707C26.9413 67.1431 26.8414 67.2001 26.7247 67.2416C26.6081 67.2819 26.4733 67.302 26.3205 67.302ZM26.5659 66.7107C26.6919 66.7107 26.8032 66.6859 26.8997 66.6363C26.9963 66.5853 27.072 66.5169 27.127 66.4311C27.182 66.3453 27.2095 66.2481 27.2095 66.1395V65.8117C27.1826 65.8291 27.1458 65.8452 27.0988 65.8599C27.0532 65.8733 27.0016 65.8861 26.944 65.8981C26.8863 65.9089 26.8287 65.9189 26.771 65.9283C26.7133 65.9364 26.6611 65.9437 26.6141 65.9504C26.5136 65.9652 26.4257 65.9886 26.3507 66.0208C26.2756 66.053 26.2172 66.0966 26.1757 66.1516C26.1341 66.2052 26.1133 66.2722 26.1133 66.3527C26.1133 66.4693 26.1556 66.5585 26.24 66.6202C26.3258 66.6805 26.4345 66.7107 26.5659 66.7107ZM29.5817 65.4577V67.2437H28.7249V64.1544H29.5415V64.6994H29.5777C29.6461 64.5198 29.7607 64.3776 29.9216 64.2731C30.0825 64.1671 30.2776 64.1142 30.5069 64.1142C30.7214 64.1142 30.9084 64.1611 31.068 64.255C31.2276 64.3488 31.3516 64.4829 31.4401 64.6572C31.5286 64.8302 31.5728 65.0367 31.5728 65.2767V67.2437H30.716V65.4295C30.7174 65.2405 30.6691 65.093 30.5712 64.987C30.4733 64.8798 30.3386 64.8261 30.167 64.8261C30.0517 64.8261 29.9498 64.851 29.8613 64.9006C29.7741 64.9502 29.7057 65.0226 29.6561 65.1178C29.6078 65.2116 29.583 65.3249 29.5817 65.4577ZM33.1049 65.4577V67.2437H32.2481V64.1544H33.0647V64.6994H33.1009C33.1692 64.5198 33.2839 64.3776 33.4448 64.2731C33.6057 64.1671 33.8008 64.1142 34.03 64.1142C34.2446 64.1142 34.4316 64.1611 34.5912 64.255C34.7507 64.3488 34.8748 64.4829 34.9633 64.6572C35.0518 64.8302 35.096 65.0367 35.096 65.2767V67.2437H34.2392V65.4295C34.2406 65.2405 34.1923 65.093 34.0944 64.987C33.9965 64.8798 33.8618 64.8261 33.6901 64.8261C33.5748 64.8261 33.4729 64.851 33.3844 64.9006C33.2973 64.9502 33.2289 65.0226 33.1793 65.1178C33.131 65.2116 33.1062 65.3249 33.1049 65.4577ZM36.6522 67.302C36.4551 67.302 36.2794 67.2678 36.1253 67.1994C35.9711 67.1297 35.849 67.0271 35.7592 66.8917C35.6707 66.7549 35.6265 66.5846 35.6265 66.3808C35.6265 66.2092 35.658 66.0651 35.721 65.9484C35.784 65.8318 35.8698 65.7379 35.9784 65.6668C36.087 65.5958 36.2104 65.5421 36.3485 65.5059C36.4879 65.4697 36.6341 65.4443 36.7869 65.4295C36.9666 65.4107 37.1114 65.3933 37.2214 65.3772C37.3313 65.3598 37.4111 65.3343 37.4607 65.3008C37.5103 65.2673 37.5351 65.2177 37.5351 65.152V65.1399C37.5351 65.0125 37.4949 64.914 37.4145 64.8443C37.3353 64.7745 37.2227 64.7397 37.0766 64.7397C36.9224 64.7397 36.7997 64.7739 36.7085 64.8422C36.6173 64.9093 36.557 64.9938 36.5275 65.0957L35.7351 65.0313C35.7753 64.8436 35.8544 64.6813 35.9724 64.5446C36.0904 64.4065 36.2426 64.3005 36.4289 64.2268C36.6167 64.1517 36.8339 64.1142 37.0806 64.1142C37.2522 64.1142 37.4165 64.1343 37.5733 64.1745C37.7316 64.2147 37.8717 64.2771 37.9937 64.3616C38.117 64.446 38.2143 64.5546 38.2853 64.6874C38.3564 64.8188 38.3919 64.9763 38.3919 65.16V67.2437H37.5794V66.8153H37.5552C37.5056 66.9118 37.4393 66.9969 37.3561 67.0707C37.273 67.1431 37.1731 67.2001 37.0565 67.2416C36.9398 67.2819 36.805 67.302 36.6522 67.302ZM36.8976 66.7107C37.0236 66.7107 37.1349 66.6859 37.2314 66.6363C37.328 66.5853 37.4037 66.5169 37.4587 66.4311C37.5137 66.3453 37.5412 66.2481 37.5412 66.1395V65.8117C37.5143 65.8291 37.4775 65.8452 37.4305 65.8599C37.385 65.8733 37.3333 65.8861 37.2757 65.8981C37.218 65.9089 37.1604 65.9189 37.1027 65.9283C37.0451 65.9364 36.9928 65.9437 36.9458 65.9504C36.8453 65.9652 36.7574 65.9886 36.6824 66.0208C36.6073 66.053 36.549 66.0966 36.5074 66.1516C36.4658 66.2052 36.445 66.2722 36.445 66.3527C36.445 66.4693 36.4873 66.5585 36.5717 66.6202C36.6576 66.6805 36.7662 66.7107 36.8976 66.7107ZM39.9134 65.4577V67.2437H39.0566V64.1544H39.8732V64.6994H39.9094C39.9778 64.5198 40.0924 64.3776 40.2533 64.2731C40.4142 64.1671 40.6093 64.1142 40.8386 64.1142C41.0531 64.1142 41.2402 64.1611 41.3997 64.255C41.5593 64.3488 41.6833 64.4829 41.7718 64.6572C41.8603 64.8302 41.9045 65.0367 41.9045 65.2767V67.2437H41.0477V65.4295C41.0491 65.2405 41.0008 65.093 40.9029 64.987C40.8051 64.8798 40.6703 64.8261 40.4987 64.8261C40.3834 64.8261 40.2815 64.851 40.193 64.9006C40.1058 64.9502 40.0374 65.0226 39.9878 65.1178C39.9396 65.2116 39.9148 65.3249 39.9134 65.4577ZM45.029 67.2939C44.7943 67.2939 44.5818 67.2336 44.3914 67.1129C44.2024 66.9909 44.0522 66.8119 43.9409 66.5759C43.831 66.3386 43.776 66.0476 43.776 65.703C43.776 65.3491 43.833 65.0548 43.9469 64.8201C44.0609 64.5841 44.2124 64.4078 44.4015 64.2912C44.5919 64.1732 44.8004 64.1142 45.027 64.1142C45.1999 64.1142 45.3441 64.1437 45.4594 64.2027C45.576 64.2603 45.6699 64.3327 45.741 64.4199C45.8134 64.5057 45.8683 64.5902 45.9059 64.6733H45.932V63.1246H46.7868V67.2437H45.9421V66.7489H45.9059C45.8657 66.8347 45.8087 66.9198 45.7349 67.0043C45.6625 67.0874 45.568 67.1565 45.4513 67.2115C45.336 67.2664 45.1952 67.2939 45.029 67.2939ZM45.3005 66.6121C45.4386 66.6121 45.5553 66.5746 45.6505 66.4995C45.747 66.4231 45.8207 66.3165 45.8717 66.1797C45.924 66.0429 45.9501 65.8827 45.9501 65.699C45.9501 65.5153 45.9247 65.3558 45.8737 65.2204C45.8228 65.0849 45.749 64.9803 45.6525 64.9066C45.5559 64.8329 45.4386 64.796 45.3005 64.796C45.1597 64.796 45.0411 64.8342 44.9445 64.9106C44.848 64.987 44.7749 65.093 44.7253 65.2284C44.6757 65.3638 44.6509 65.5207 44.6509 65.699C44.6509 65.8787 44.6757 66.0376 44.7253 66.1757C44.7762 66.3125 44.8493 66.4197 44.9445 66.4975C45.0411 66.5739 45.1597 66.6121 45.3005 66.6121ZM47.4912 67.2437V64.1544H48.348V67.2437H47.4912ZM47.9216 63.7562C47.7943 63.7562 47.685 63.7139 47.5938 63.6295C47.504 63.5437 47.4591 63.4411 47.4591 63.3217C47.4591 63.2038 47.504 63.1025 47.5938 63.0181C47.685 62.9322 47.7943 62.8893 47.9216 62.8893C48.049 62.8893 48.1576 62.9322 48.2475 63.0181C48.3386 63.1025 48.3842 63.2038 48.3842 63.3217C48.3842 63.4411 48.3386 63.5437 48.2475 63.6295C48.1576 63.7139 48.049 63.7562 47.9216 63.7562ZM50.4261 68.4665C50.1486 68.4665 49.9106 68.4283 49.7121 68.3518C49.515 68.2768 49.3582 68.1742 49.2415 68.0441C49.1249 67.9141 49.0491 67.7679 49.0142 67.6057L49.8067 67.4991C49.8308 67.5608 49.869 67.6184 49.9213 67.672C49.9736 67.7257 50.0427 67.7686 50.1285 67.8008C50.2156 67.8343 50.3215 67.851 50.4462 67.851C50.6326 67.851 50.7861 67.8055 50.9068 67.7143C51.0288 67.6244 51.0898 67.4736 51.0898 67.2618V66.6966H51.0536C51.0161 66.7824 50.9598 66.8635 50.8847 66.94C50.8096 67.0164 50.7131 67.0787 50.5951 67.127C50.4771 67.1753 50.3363 67.1994 50.1727 67.1994C49.9408 67.1994 49.7296 67.1458 49.5392 67.0385C49.3501 66.9299 49.1993 66.7643 49.0866 66.5417C48.9754 66.3178 48.9197 66.0349 48.9197 65.693C48.9197 65.343 48.9767 65.0507 49.0907 64.8161C49.2046 64.5814 49.3562 64.4058 49.5452 64.2891C49.7356 64.1725 49.9441 64.1142 50.1707 64.1142C50.3437 64.1142 50.4885 64.1437 50.6051 64.2027C50.7218 64.2603 50.8156 64.3327 50.8867 64.4199C50.9591 64.5057 51.0148 64.5902 51.0536 64.6733H51.0858V64.1544H51.9366V67.2738C51.9366 67.5366 51.8722 67.7565 51.7435 67.9335C51.6148 68.1105 51.4364 68.2432 51.2085 68.3317C50.9819 68.4216 50.7211 68.4665 50.4261 68.4665ZM50.4442 66.5558C50.5823 66.5558 50.699 66.5216 50.7942 66.4532C50.8907 66.3835 50.9645 66.2843 51.0154 66.1556C51.0677 66.0255 51.0939 65.87 51.0939 65.689C51.0939 65.508 51.0684 65.3511 51.0174 65.2183C50.9665 65.0843 50.8927 64.9803 50.7962 64.9066C50.6997 64.8329 50.5823 64.796 50.4442 64.796C50.3034 64.796 50.1848 64.8342 50.0882 64.9106C49.9917 64.9857 49.9186 65.0903 49.869 65.2244C49.8194 65.3585 49.7946 65.5133 49.7946 65.689C49.7946 65.8673 49.8194 66.0215 49.869 66.1516C49.92 66.2803 49.993 66.3802 50.0882 66.4512C50.1848 66.5209 50.3034 66.5558 50.4442 66.5558ZM52.6184 67.2437V64.1544H53.4752V67.2437H52.6184ZM53.0488 63.7562C52.9214 63.7562 52.8121 63.7139 52.7209 63.6295C52.6311 63.5437 52.5862 63.4411 52.5862 63.3217C52.5862 63.2038 52.6311 63.1025 52.7209 63.0181C52.8121 62.9322 52.9214 62.8893 53.0488 62.8893C53.1762 62.8893 53.2848 62.9322 53.3746 63.0181C53.4658 63.1025 53.5114 63.2038 53.5114 63.3217C53.5114 63.4411 53.4658 63.5437 53.3746 63.6295C53.2848 63.7139 53.1762 63.7562 53.0488 63.7562ZM55.8047 64.1544V64.798H53.9443V64.1544H55.8047ZM54.3666 63.4143H55.2234V66.2943C55.2234 66.3735 55.2355 66.4351 55.2596 66.4794C55.2838 66.5223 55.3173 66.5525 55.3602 66.5699C55.4044 66.5873 55.4554 66.596 55.513 66.596C55.5533 66.596 55.5935 66.5927 55.6337 66.586C55.6739 66.5779 55.7048 66.5719 55.7262 66.5679L55.861 67.2054C55.8181 67.2188 55.7577 67.2343 55.68 67.2517C55.6022 67.2705 55.5077 67.2819 55.3964 67.2859C55.1899 67.2939 55.0089 67.2664 54.8534 67.2034C54.6992 67.1404 54.5792 67.0425 54.4933 66.9098C54.4075 66.777 54.3653 66.6094 54.3666 66.407V63.4143ZM57.2437 67.302C57.0466 67.302 56.871 67.2678 56.7168 67.1994C56.5626 67.1297 56.4406 67.0271 56.3507 66.8917C56.2622 66.7549 56.218 66.5846 56.218 66.3808C56.218 66.2092 56.2495 66.0651 56.3125 65.9484C56.3755 65.8318 56.4613 65.7379 56.5699 65.6668C56.6786 65.5958 56.8019 65.5421 56.94 65.5059C57.0795 65.4697 57.2256 65.4443 57.3785 65.4295C57.5581 65.4107 57.7029 65.3933 57.8129 65.3772C57.9228 65.3598 58.0026 65.3343 58.0522 65.3008C58.1018 65.2673 58.1266 65.2177 58.1266 65.152V65.1399C58.1266 65.0125 58.0864 64.914 58.006 64.8443C57.9269 64.7745 57.8142 64.7397 57.6681 64.7397C57.5139 64.7397 57.3912 64.7739 57.3 64.8422C57.2088 64.9093 57.1485 64.9938 57.119 65.0957L56.3266 65.0313C56.3668 64.8436 56.4459 64.6813 56.5639 64.5446C56.6819 64.4065 56.8341 64.3005 57.0205 64.2268C57.2082 64.1517 57.4254 64.1142 57.6721 64.1142C57.8437 64.1142 58.008 64.1343 58.1649 64.1745C58.3231 64.2147 58.4632 64.2771 58.5852 64.3616C58.7086 64.446 58.8058 64.5546 58.8768 64.6874C58.9479 64.8188 58.9834 64.9763 58.9834 65.16V67.2437H58.1709V66.8153H58.1468C58.0971 66.9118 58.0308 66.9969 57.9476 67.0707C57.8645 67.1431 57.7646 67.2001 57.648 67.2416C57.5313 67.2819 57.3966 67.302 57.2437 67.302ZM57.4891 66.7107C57.6151 66.7107 57.7264 66.6859 57.8229 66.6363C57.9195 66.5853 57.9952 66.5169 58.0502 66.4311C58.1052 66.3453 58.1327 66.2481 58.1327 66.1395V65.8117C58.1059 65.8291 58.069 65.8452 58.0221 65.8599C57.9765 65.8733 57.9248 65.8861 57.8672 65.8981C57.8095 65.9089 57.7519 65.9189 57.6942 65.9283C57.6366 65.9364 57.5843 65.9437 57.5373 65.9504C57.4368 65.9652 57.349 65.9886 57.2739 66.0208C57.1988 66.053 57.1405 66.0966 57.0989 66.1516C57.0573 66.2052 57.0366 66.2722 57.0366 66.3527C57.0366 66.4693 57.0788 66.5585 57.1633 66.6202C57.2491 66.6805 57.3577 66.7107 57.4891 66.7107ZM60.5049 63.1246V67.2437H59.6481V63.1246H60.5049ZM62.5021 68.4021V64.1544H63.3468V64.6733H63.385C63.4226 64.5902 63.4769 64.5057 63.5479 64.4199C63.6203 64.3327 63.7142 64.2603 63.8295 64.2027C63.9461 64.1437 64.091 64.1142 64.2639 64.1142C64.4892 64.1142 64.697 64.1732 64.8874 64.2912C65.0778 64.4078 65.23 64.5841 65.344 64.8201C65.4579 65.0548 65.5149 65.3491 65.5149 65.703C65.5149 66.0476 65.4593 66.3386 65.348 66.5759C65.238 66.8119 65.0879 66.9909 64.8975 67.1129C64.7084 67.2336 64.4966 67.2939 64.2619 67.2939C64.0956 67.2939 63.9542 67.2664 63.8375 67.2115C63.7222 67.1565 63.6277 67.0874 63.554 67.0043C63.4802 66.9198 63.4239 66.8347 63.385 66.7489H63.3589V68.4021H62.5021ZM63.3408 65.699C63.3408 65.8827 63.3662 66.0429 63.4172 66.1797C63.4681 66.3165 63.5419 66.4231 63.6384 66.4995C63.735 66.5746 63.8523 66.6121 63.9904 66.6121C64.1298 66.6121 64.2478 66.5739 64.3444 66.4975C64.4409 66.4197 64.514 66.3125 64.5636 66.1757C64.6145 66.0376 64.64 65.8787 64.64 65.699C64.64 65.5207 64.6152 65.3638 64.5656 65.2284C64.516 65.093 64.4429 64.987 64.3464 64.9106C64.2498 64.8342 64.1312 64.796 63.9904 64.796C63.8509 64.796 63.733 64.8329 63.6364 64.9066C63.5412 64.9803 63.4681 65.0849 63.4172 65.2204C63.3662 65.3558 63.3408 65.5153 63.3408 65.699ZM66.9429 63.1246V67.2437H66.0861V63.1246H66.9429ZM68.5101 67.302C68.313 67.302 68.1374 67.2678 67.9832 67.1994C67.829 67.1297 67.707 67.0271 67.6172 66.8917C67.5287 66.7549 67.4844 66.5846 67.4844 66.3808C67.4844 66.2092 67.5159 66.0651 67.5789 65.9484C67.642 65.8318 67.7278 65.7379 67.8364 65.6668C67.945 65.5958 68.0683 65.5421 68.2064 65.5059C68.3459 65.4697 68.492 65.4443 68.6449 65.4295C68.8246 65.4107 68.9694 65.3933 69.0793 65.3772C69.1893 65.3598 69.269 65.3343 69.3187 65.3008C69.3683 65.2673 69.3931 65.2177 69.3931 65.152V65.1399C69.3931 65.0125 69.3528 64.914 69.2724 64.8443C69.1933 64.7745 69.0807 64.7397 68.9345 64.7397C68.7803 64.7397 68.6576 64.7739 68.5665 64.8422C68.4753 64.9093 68.4149 64.9938 68.3854 65.0957L67.593 65.0313C67.6332 64.8436 67.7123 64.6813 67.8303 64.5446C67.9483 64.4065 68.1005 64.3005 68.2869 64.2268C68.4746 64.1517 68.6918 64.1142 68.9385 64.1142C69.1102 64.1142 69.2744 64.1343 69.4313 64.1745C69.5895 64.2147 69.7296 64.2771 69.8516 64.3616C69.975 64.446 70.0722 64.5546 70.1433 64.6874C70.2143 64.8188 70.2499 64.9763 70.2499 65.16V67.2437H69.4373V66.8153H69.4132C69.3636 66.9118 69.2972 66.9969 69.2141 67.0707C69.1309 67.1431 69.031 67.2001 68.9144 67.2416C68.7977 67.2819 68.663 67.302 68.5101 67.302ZM68.7555 66.7107C68.8815 66.7107 68.9928 66.6859 69.0894 66.6363C69.1859 66.5853 69.2617 66.5169 69.3166 66.4311C69.3716 66.3453 69.3991 66.2481 69.3991 66.1395V65.8117C69.3723 65.8291 69.3354 65.8452 69.2885 65.8599C69.2429 65.8733 69.1913 65.8861 69.1336 65.8981C69.076 65.9089 69.0183 65.9189 68.9607 65.9283C68.903 65.9364 68.8507 65.9437 68.8038 65.9504C68.7032 65.9652 68.6154 65.9886 68.5403 66.0208C68.4652 66.053 68.4069 66.0966 68.3653 66.1516C68.3238 66.2052 68.303 66.2722 68.303 66.3527C68.303 66.4693 68.3452 66.5585 68.4297 66.6202C68.5155 66.6805 68.6241 66.7107 68.7555 66.7107ZM72.5577 64.1544V64.798H70.6974V64.1544H72.5577ZM71.1197 63.4143H71.9765V66.2943C71.9765 66.3735 71.9886 66.4351 72.0127 66.4794C72.0368 66.5223 72.0704 66.5525 72.1133 66.5699C72.1575 66.5873 72.2085 66.596 72.2661 66.596C72.3063 66.596 72.3466 66.5927 72.3868 66.586C72.427 66.5779 72.4579 66.5719 72.4793 66.5679L72.6141 67.2054C72.5712 67.2188 72.5108 67.2343 72.433 67.2517C72.3553 67.2705 72.2608 67.2819 72.1495 67.2859C71.943 67.2939 71.762 67.2664 71.6064 67.2034C71.4522 67.1404 71.3322 67.0425 71.2464 66.9098C71.1606 66.777 71.1184 66.6094 71.1197 66.407V63.4143ZM74.759 64.1544V64.798H72.8986V64.1544H74.759ZM73.321 63.4143H74.1778V66.2943C74.1778 66.3735 74.1899 66.4351 74.214 66.4794C74.2381 66.5223 74.2717 66.5525 74.3146 66.5699C74.3588 66.5873 74.4098 66.596 74.4674 66.596C74.5076 66.596 74.5479 66.5927 74.5881 66.586C74.6283 66.5779 74.6591 66.5719 74.6806 66.5679L74.8154 67.2054C74.7724 67.2188 74.7121 67.2343 74.6343 67.2517C74.5566 67.2705 74.462 67.2819 74.3508 67.2859C74.1443 67.2939 73.9633 67.2664 73.8077 67.2034C73.6535 67.1404 73.5335 67.0425 73.4477 66.9098C73.3619 66.777 73.3197 66.6094 73.321 66.407V63.4143ZM76.9784 64.1544V64.798H75.0718V64.1544H76.9784ZM75.5082 67.2437V63.9312C75.5082 63.7072 75.5518 63.5215 75.639 63.374C75.7274 63.2265 75.8481 63.1159 76.001 63.0422C76.1538 62.9684 76.3275 62.9316 76.5219 62.9316C76.6533 62.9316 76.7733 62.9416 76.8819 62.9617C76.9918 62.9818 77.0736 62.9999 77.1273 63.016L76.9744 63.6596C76.9409 63.6489 76.8993 63.6389 76.8497 63.6295C76.8014 63.6201 76.7518 63.6154 76.7009 63.6154C76.5748 63.6154 76.487 63.6449 76.4374 63.7039C76.3878 63.7615 76.363 63.8427 76.363 63.9472V67.2437H75.5082ZM78.787 67.304C78.4746 67.304 78.2045 67.2376 77.9765 67.1049C77.7499 66.9708 77.5749 66.7844 77.4516 66.5458C77.3282 66.3057 77.2665 66.0275 77.2665 65.7111C77.2665 65.392 77.3282 65.1131 77.4516 64.8744C77.5749 64.6344 77.7499 64.448 77.9765 64.3153C78.2045 64.1812 78.4746 64.1142 78.787 64.1142C79.0994 64.1142 79.369 64.1812 79.5956 64.3153C79.8235 64.448 79.9991 64.6344 80.1225 64.8744C80.2459 65.1131 80.3075 65.392 80.3075 65.7111C80.3075 66.0275 80.2459 66.3057 80.1225 66.5458C79.9991 66.7844 79.8235 66.9708 79.5956 67.1049C79.369 67.2376 79.0994 67.304 78.787 67.304ZM78.7911 66.6403C78.9332 66.6403 79.0519 66.6001 79.147 66.5196C79.2422 66.4378 79.314 66.3265 79.3623 66.1857C79.4119 66.045 79.4367 65.8847 79.4367 65.7051C79.4367 65.5254 79.4119 65.3652 79.3623 65.2244C79.314 65.0836 79.2422 64.9723 79.147 64.8905C79.0519 64.8087 78.9332 64.7678 78.7911 64.7678C78.6476 64.7678 78.5269 64.8087 78.429 64.8905C78.3325 64.9723 78.2594 65.0836 78.2098 65.2244C78.1615 65.3652 78.1374 65.5254 78.1374 65.7051C78.1374 65.8847 78.1615 66.045 78.2098 66.1857C78.2594 66.3265 78.3325 66.4378 78.429 66.5196C78.5269 66.6001 78.6476 66.6403 78.7911 66.6403ZM80.8646 67.2437V64.1544H81.6953V64.6934H81.7275C81.7838 64.5017 81.8783 64.3569 82.011 64.259C82.1438 64.1598 82.2966 64.1102 82.4696 64.1102C82.5125 64.1102 82.5588 64.1128 82.6084 64.1182C82.658 64.1236 82.7016 64.1309 82.7391 64.1403V64.9006C82.6989 64.8885 82.6432 64.8778 82.5722 64.8684C82.5011 64.859 82.4361 64.8543 82.3771 64.8543C82.2511 64.8543 82.1384 64.8818 82.0392 64.9368C81.9413 64.9904 81.8636 65.0655 81.8059 65.162C81.7496 65.2586 81.7214 65.3699 81.7214 65.4959V67.2437H80.8646ZM83.1821 67.2437V64.1544H83.9987V64.6994H84.0349C84.0992 64.5184 84.2065 64.3756 84.3566 64.271C84.5068 64.1665 84.6865 64.1142 84.8957 64.1142C85.1075 64.1142 85.2879 64.1671 85.4367 64.2731C85.5855 64.3776 85.6847 64.5198 85.7343 64.6994H85.7665C85.8295 64.5225 85.9435 64.381 86.1084 64.2751C86.2747 64.1678 86.4711 64.1142 86.6977 64.1142C86.986 64.1142 87.22 64.206 87.3996 64.3897C87.5807 64.5721 87.6712 64.8308 87.6712 65.166V67.2437H86.8164V65.335C86.8164 65.1634 86.7708 65.0346 86.6796 64.9488C86.5884 64.863 86.4745 64.8201 86.3377 64.8201C86.1822 64.8201 86.0608 64.8697 85.9737 64.9689C85.8865 65.0668 85.843 65.1962 85.843 65.3571V67.2437H85.0123V65.3169C85.0123 65.1654 84.9687 65.0447 84.8816 64.9549C84.7958 64.865 84.6825 64.8201 84.5417 64.8201C84.4465 64.8201 84.3607 64.8443 84.2842 64.8925C84.2092 64.9394 84.1495 65.0058 84.1052 65.0916C84.061 65.1761 84.0389 65.2753 84.0389 65.3893V67.2437H83.1821Z" fill="black"/>
<path d="M39.1873 85.8481H37.7271V81.7291H39.1994C39.6137 81.7291 39.9703 81.8116 40.2693 81.9765C40.5683 82.1401 40.7983 82.3754 40.9592 82.6825C41.1214 82.9895 41.2026 83.3569 41.2026 83.7846C41.2026 84.2137 41.1214 84.5824 40.9592 84.8908C40.7983 85.1992 40.567 85.4358 40.2653 85.6008C39.965 85.7657 39.6056 85.8481 39.1873 85.8481ZM38.598 85.102H39.1511C39.4085 85.102 39.6251 85.0564 39.8007 84.9652C39.9777 84.8727 40.1105 84.7299 40.1989 84.5368C40.2888 84.3424 40.3337 84.0917 40.3337 83.7846C40.3337 83.4803 40.2888 83.2315 40.1989 83.0385C40.1105 82.8454 39.9784 82.7032 39.8027 82.6121C39.6271 82.5209 39.4105 82.4753 39.1531 82.4753H38.598V85.102ZM41.8316 85.8481V82.7589H42.6884V85.8481H41.8316ZM42.262 82.3607C42.1346 82.3607 42.0253 82.3184 41.9341 82.234C41.8443 82.1481 41.7994 82.0456 41.7994 81.9262C41.7994 81.8082 41.8443 81.707 41.9341 81.6225C42.0253 81.5367 42.1346 81.4938 42.262 81.4938C42.3893 81.4938 42.498 81.5367 42.5878 81.6225C42.679 81.707 42.7246 81.8082 42.7246 81.9262C42.7246 82.0456 42.679 82.1481 42.5878 82.234C42.498 82.3184 42.3893 82.3607 42.262 82.3607ZM44.7665 87.071C44.4889 87.071 44.2509 87.0328 44.0525 86.9563C43.8554 86.8812 43.6985 86.7787 43.5818 86.6486C43.4652 86.5186 43.3894 86.3724 43.3546 86.2102L44.147 86.1036C44.1711 86.1652 44.2093 86.2229 44.2616 86.2765C44.3139 86.3302 44.383 86.3731 44.4688 86.4053C44.5559 86.4388 44.6619 86.4555 44.7866 86.4555C44.9729 86.4555 45.1265 86.4099 45.2471 86.3188C45.3692 86.2289 45.4302 86.0781 45.4302 85.8662V85.3011H45.394C45.3564 85.3869 45.3001 85.468 45.225 85.5444C45.1499 85.6209 45.0534 85.6832 44.9354 85.7315C44.8174 85.7798 44.6766 85.8039 44.513 85.8039C44.2811 85.8039 44.0699 85.7503 43.8795 85.643C43.6904 85.5344 43.5396 85.3688 43.427 85.1462C43.3157 84.9223 43.26 84.6394 43.26 84.2975C43.26 83.9475 43.317 83.6552 43.431 83.4206C43.545 83.1859 43.6965 83.0103 43.8855 82.8936C44.0759 82.777 44.2844 82.7187 44.511 82.7187C44.684 82.7187 44.8288 82.7482 44.9455 82.8072C45.0621 82.8648 45.156 82.9372 45.227 83.0244C45.2994 83.1102 45.3551 83.1947 45.394 83.2778H45.4261V82.7589H46.2769V85.8783C46.2769 86.1411 46.2125 86.361 46.0838 86.538C45.9551 86.715 45.7768 86.8477 45.5488 86.9362C45.3222 87.0261 45.0614 87.071 44.7665 87.071ZM44.7846 85.1603C44.9227 85.1603 45.0393 85.1261 45.1345 85.0577C45.2311 84.988 45.3048 84.8888 45.3557 84.7601C45.408 84.63 45.4342 84.4745 45.4342 84.2935C45.4342 84.1124 45.4087 83.9556 45.3578 83.8228C45.3068 83.6887 45.2331 83.5848 45.1365 83.5111C45.04 83.4373 44.9227 83.4005 44.7846 83.4005C44.6438 83.4005 44.5251 83.4387 44.4286 83.5151C44.332 83.5902 44.259 83.6948 44.2093 83.8289C44.1597 83.9629 44.1349 84.1178 44.1349 84.2935C44.1349 84.4718 44.1597 84.626 44.2093 84.756C44.2603 84.8848 44.3334 84.9847 44.4286 85.0557C44.5251 85.1254 44.6438 85.1603 44.7846 85.1603ZM46.9587 85.8481V82.7589H47.8155V85.8481H46.9587ZM47.3891 82.3607C47.2617 82.3607 47.1525 82.3184 47.0613 82.234C46.9714 82.1481 46.9265 82.0456 46.9265 81.9262C46.9265 81.8082 46.9714 81.707 47.0613 81.6225C47.1525 81.5367 47.2617 81.4938 47.3891 81.4938C47.5165 81.4938 47.6251 81.5367 47.7149 81.6225C47.8061 81.707 47.8517 81.8082 47.8517 81.9262C47.8517 82.0456 47.8061 82.1481 47.7149 82.234C47.6251 82.3184 47.5165 82.3607 47.3891 82.3607ZM50.145 82.7589V83.4025H48.2846V82.7589H50.145ZM48.707 82.0188H49.5638V84.8988C49.5638 84.978 49.5758 85.0396 49.6 85.0839C49.6241 85.1268 49.6576 85.157 49.7005 85.1744C49.7448 85.1918 49.7957 85.2005 49.8534 85.2005C49.8936 85.2005 49.9338 85.1972 49.974 85.1905C50.0143 85.1824 50.0451 85.1764 50.0666 85.1724L50.2013 85.8099C50.1584 85.8233 50.0981 85.8388 50.0203 85.8562C49.9425 85.875 49.848 85.8864 49.7367 85.8904C49.5302 85.8984 49.3492 85.8709 49.1937 85.8079C49.0395 85.7449 48.9195 85.647 48.8337 85.5143C48.7479 85.3815 48.7056 85.2139 48.707 85.0115V82.0188ZM51.584 85.9065C51.3869 85.9065 51.2113 85.8723 51.0571 85.8039C50.9029 85.7342 50.7809 85.6316 50.6911 85.4962C50.6026 85.3594 50.5583 85.1891 50.5583 84.9853C50.5583 84.8137 50.5898 84.6696 50.6528 84.5529C50.7159 84.4363 50.8017 84.3424 50.9103 84.2713C51.0189 84.2003 51.1422 84.1466 51.2803 84.1104C51.4198 84.0742 51.5659 84.0488 51.7188 84.034C51.8985 84.0152 52.0433 83.9978 52.1532 83.9817C52.2632 83.9643 52.3429 83.9388 52.3926 83.9053C52.4422 83.8718 52.467 83.8222 52.467 83.7565V83.7444C52.467 83.617 52.4267 83.5185 52.3463 83.4487C52.2672 83.379 52.1546 83.3442 52.0084 83.3442C51.8542 83.3442 51.7315 83.3783 51.6404 83.4467C51.5492 83.5138 51.4888 83.5982 51.4593 83.7001L50.6669 83.6358C50.7071 83.4481 50.7862 83.2858 50.9042 83.1491C51.0222 83.011 51.1744 82.905 51.3608 82.8313C51.5485 82.7562 51.7657 82.7187 52.0124 82.7187C52.1841 82.7187 52.3483 82.7388 52.5052 82.779C52.6634 82.8192 52.8035 82.8816 52.9255 82.966C53.0489 83.0505 53.1461 83.1591 53.2172 83.2919C53.2882 83.4233 53.3238 83.5808 53.3238 83.7645V85.8481H52.5112V85.4198H52.4871C52.4375 85.5163 52.3711 85.6014 52.288 85.6752C52.2048 85.7476 52.1049 85.8046 51.9883 85.8461C51.8716 85.8864 51.7369 85.9065 51.584 85.9065ZM51.8294 85.3152C51.9554 85.3152 52.0667 85.2904 52.1633 85.2408C52.2598 85.1898 52.3356 85.1214 52.3905 85.0356C52.4455 84.9498 52.473 84.8526 52.473 84.744V84.4161C52.4462 84.4336 52.4093 84.4497 52.3624 84.4644C52.3168 84.4778 52.2652 84.4906 52.2075 84.5026C52.1499 84.5134 52.0922 84.5234 52.0346 84.5328C51.9769 84.5408 51.9246 84.5482 51.8777 84.5549C51.7771 84.5697 51.6893 84.5931 51.6142 84.6253C51.5391 84.6575 51.4808 84.7011 51.4392 84.756C51.3977 84.8097 51.3769 84.8767 51.3769 84.9572C51.3769 85.0738 51.4191 85.163 51.5036 85.2247C51.5894 85.285 51.698 85.3152 51.8294 85.3152ZM54.8453 81.7291V85.8481H53.9885V81.7291H54.8453ZM56.8424 87.0066V82.7589H57.6871V83.2778H57.7253C57.7629 83.1947 57.8172 83.1102 57.8883 83.0244C57.9607 82.9372 58.0545 82.8648 58.1698 82.8072C58.2865 82.7482 58.4313 82.7187 58.6043 82.7187C58.8295 82.7187 59.0373 82.7777 59.2277 82.8957C59.4181 83.0123 59.5703 83.1886 59.6843 83.4246C59.7983 83.6593 59.8552 83.9536 59.8552 84.3075C59.8552 84.6521 59.7996 84.9431 59.6883 85.1804C59.5784 85.4164 59.4282 85.5954 59.2378 85.7174C59.0487 85.8381 58.8369 85.8984 58.6022 85.8984C58.436 85.8984 58.2945 85.8709 58.1779 85.816C58.0626 85.761 57.968 85.6919 57.8943 85.6088C57.8205 85.5243 57.7642 85.4392 57.7253 85.3534H57.6992V87.0066H56.8424ZM57.6811 84.3035C57.6811 84.4872 57.7066 84.6474 57.7575 84.7842C57.8085 84.921 57.8822 85.0276 57.9788 85.104C58.0753 85.1791 58.1926 85.2166 58.3307 85.2166C58.4702 85.2166 58.5882 85.1784 58.6847 85.102C58.7812 85.0242 58.8543 84.9169 58.9039 84.7802C58.9549 84.6421 58.9804 84.4832 58.9804 84.3035C58.9804 84.1252 58.9555 83.9683 58.9059 83.8329C58.8563 83.6975 58.7833 83.5915 58.6867 83.5151C58.5902 83.4387 58.4715 83.4005 58.3307 83.4005C58.1913 83.4005 58.0733 83.4373 57.9767 83.5111C57.8815 83.5848 57.8085 83.6894 57.7575 83.8248C57.7066 83.9603 57.6811 84.1198 57.6811 84.3035ZM61.2832 81.7291V85.8481H60.4264V81.7291H61.2832ZM62.8505 85.9065C62.6534 85.9065 62.4777 85.8723 62.3235 85.8039C62.1693 85.7342 62.0473 85.6316 61.9575 85.4962C61.869 85.3594 61.8247 85.1891 61.8247 84.9853C61.8247 84.8137 61.8562 84.6696 61.9193 84.5529C61.9823 84.4363 62.0681 84.3424 62.1767 84.2713C62.2853 84.2003 62.4087 84.1466 62.5468 84.1104C62.6862 84.0742 62.8324 84.0488 62.9852 84.034C63.1649 84.0152 63.3097 83.9978 63.4196 83.9817C63.5296 83.9643 63.6094 83.9388 63.659 83.9053C63.7086 83.8718 63.7334 83.8222 63.7334 83.7565V83.7444C63.7334 83.617 63.6932 83.5185 63.6127 83.4487C63.5336 83.379 63.421 83.3442 63.2748 83.3442C63.1206 83.3442 62.998 83.3783 62.9068 83.4467C62.8156 83.5138 62.7553 83.5982 62.7258 83.7001L61.9333 83.6358C61.9736 83.4481 62.0527 83.2858 62.1707 83.1491C62.2887 83.011 62.4408 82.905 62.6272 82.8313C62.8149 82.7562 63.0321 82.7187 63.2789 82.7187C63.4505 82.7187 63.6147 82.7388 63.7716 82.779C63.9298 82.8192 64.0699 82.8816 64.192 82.966C64.3153 83.0505 64.4125 83.1591 64.4836 83.2919C64.5547 83.4233 64.5902 83.5808 64.5902 83.7645V85.8481H63.7776V85.4198H63.7535C63.7039 85.5163 63.6375 85.6014 63.5544 85.6752C63.4713 85.7476 63.3714 85.8046 63.2547 85.8461C63.1381 85.8864 63.0033 85.9065 62.8505 85.9065ZM63.0958 85.3152C63.2219 85.3152 63.3332 85.2904 63.4297 85.2408C63.5262 85.1898 63.602 85.1214 63.657 85.0356C63.7119 84.9498 63.7394 84.8526 63.7394 84.744V84.4161C63.7126 84.4336 63.6757 84.4497 63.6288 84.4644C63.5832 84.4778 63.5316 84.4906 63.4739 84.5026C63.4163 84.5134 63.3586 84.5234 63.301 84.5328C63.2433 84.5408 63.191 84.5482 63.1441 84.5549C63.0435 84.5697 62.9557 84.5931 62.8806 84.6253C62.8055 84.6575 62.7472 84.7011 62.7057 84.756C62.6641 84.8097 62.6433 84.8767 62.6433 84.9572C62.6433 85.0738 62.6855 85.163 62.77 85.2247C62.8558 85.285 62.9644 85.3152 63.0958 85.3152ZM66.8981 82.7589V83.4025H65.0377V82.7589H66.8981ZM65.46 82.0188H66.3168V84.8988C66.3168 84.978 66.3289 85.0396 66.353 85.0839C66.3772 85.1268 66.4107 85.157 66.4536 85.1744C66.4978 85.1918 66.5488 85.2005 66.6064 85.2005C66.6467 85.2005 66.6869 85.1972 66.7271 85.1905C66.7673 85.1824 66.7982 85.1764 66.8196 85.1724L66.9544 85.8099C66.9115 85.8233 66.8511 85.8388 66.7734 85.8562C66.6956 85.875 66.6011 85.8864 66.4898 85.8904C66.2833 85.8984 66.1023 85.8709 65.9468 85.8079C65.7926 85.7449 65.6726 85.647 65.5868 85.5143C65.5009 85.3815 65.4587 85.2139 65.46 85.0115V82.0188ZM69.0994 82.7589V83.4025H67.239V82.7589H69.0994ZM67.6613 82.0188H68.5181V84.8988C68.5181 84.978 68.5302 85.0396 68.5543 85.0839C68.5785 85.1268 68.612 85.157 68.6549 85.1744C68.6991 85.1918 68.7501 85.2005 68.8077 85.2005C68.848 85.2005 68.8882 85.1972 68.9284 85.1905C68.9686 85.1824 68.9995 85.1764 69.0209 85.1724L69.1557 85.8099C69.1128 85.8233 69.0524 85.8388 68.9747 85.8562C68.8969 85.875 68.8024 85.8864 68.6911 85.8904C68.4846 85.8984 68.3036 85.8709 68.1481 85.8079C67.9939 85.7449 67.8739 85.647 67.788 85.5143C67.7022 85.3815 67.66 85.2139 67.6613 85.0115V82.0188ZM71.3188 82.7589V83.4025H69.4121V82.7589H71.3188ZM69.8486 85.8481V82.5356C69.8486 82.3117 69.8921 82.126 69.9793 81.9785C70.0678 81.831 70.1885 81.7204 70.3413 81.6467C70.4942 81.5729 70.6678 81.5361 70.8622 81.5361C70.9936 81.5361 71.1136 81.5461 71.2222 81.5662C71.3322 81.5863 71.414 81.6044 71.4676 81.6205L71.3147 82.2641C71.2812 82.2534 71.2397 82.2433 71.19 82.234C71.1418 82.2246 71.0922 82.2199 71.0412 82.2199C70.9152 82.2199 70.8274 82.2494 70.7777 82.3084C70.7281 82.366 70.7033 82.4471 70.7033 82.5517V85.8481H69.8486ZM73.1274 85.9085C72.815 85.9085 72.5448 85.8421 72.3168 85.7094C72.0902 85.5753 71.9153 85.3889 71.7919 85.1502C71.6686 84.9102 71.6069 84.632 71.6069 84.3156C71.6069 83.9965 71.6686 83.7176 71.7919 83.4789C71.9153 83.2389 72.0902 83.0525 72.3168 82.9198C72.5448 82.7857 72.815 82.7187 73.1274 82.7187C73.4398 82.7187 73.7093 82.7857 73.9359 82.9198C74.1638 83.0525 74.3395 83.2389 74.4628 83.4789C74.5862 83.7176 74.6479 83.9965 74.6479 84.3156C74.6479 84.632 74.5862 84.9102 74.4628 85.1502C74.3395 85.3889 74.1638 85.5753 73.9359 85.7094C73.7093 85.8421 73.4398 85.9085 73.1274 85.9085ZM73.1314 85.2448C73.2735 85.2448 73.3922 85.2045 73.4874 85.1241C73.5826 85.0423 73.6543 84.931 73.7026 84.7902C73.7522 84.6494 73.777 84.4892 73.777 84.3096C73.777 84.1299 73.7522 83.9697 73.7026 83.8289C73.6543 83.6881 73.5826 83.5768 73.4874 83.495C73.3922 83.4132 73.2735 83.3723 73.1314 83.3723C72.9879 83.3723 72.8673 83.4132 72.7694 83.495C72.6728 83.5768 72.5998 83.6881 72.5501 83.8289C72.5019 83.9697 72.4777 84.1299 72.4777 84.3096C72.4777 84.4892 72.5019 84.6494 72.5501 84.7902C72.5998 84.931 72.6728 85.0423 72.7694 85.1241C72.8673 85.2045 72.9879 85.2448 73.1314 85.2448ZM75.205 85.8481V82.7589H76.0356V83.2979H76.0678C76.1241 83.1062 76.2186 82.9614 76.3514 82.8635C76.4841 82.7643 76.637 82.7146 76.8099 82.7146C76.8528 82.7146 76.8991 82.7173 76.9487 82.7227C76.9983 82.7281 77.0419 82.7354 77.0794 82.7448V83.5051C77.0392 83.493 76.9836 83.4823 76.9125 83.4729C76.8414 83.4635 76.7764 83.4588 76.7174 83.4588C76.5914 83.4588 76.4788 83.4863 76.3795 83.5413C76.2817 83.5949 76.2039 83.67 76.1462 83.7665C76.0899 83.8631 76.0618 83.9743 76.0618 84.1004V85.8481H75.205ZM77.5224 85.8481V82.7589H78.339V83.3039H78.3752C78.4395 83.1229 78.5468 82.9801 78.697 82.8755C78.8472 82.771 79.0268 82.7187 79.236 82.7187C79.4478 82.7187 79.6282 82.7716 79.777 82.8776C79.9258 82.9821 80.0251 83.1243 80.0747 83.3039H80.1069C80.1699 83.1269 80.2838 82.9855 80.4488 82.8796C80.615 82.7723 80.8115 82.7187 81.0381 82.7187C81.3263 82.7187 81.5603 82.8105 81.74 82.9942C81.921 83.1766 82.0115 83.4353 82.0115 83.7705V85.8481H81.1567V83.9395C81.1567 83.7679 81.1111 83.6391 81.02 83.5533C80.9288 83.4675 80.8148 83.4246 80.678 83.4246C80.5225 83.4246 80.4012 83.4742 80.314 83.5734C80.2269 83.6713 80.1833 83.8007 80.1833 83.9616V85.8481H79.3526V83.9214C79.3526 83.7699 79.3091 83.6492 79.2219 83.5594C79.1361 83.4695 79.0228 83.4246 78.882 83.4246C78.7868 83.4246 78.701 83.4487 78.6246 83.497C78.5495 83.5439 78.4898 83.6103 78.4456 83.6961C78.4013 83.7806 78.3792 83.8798 78.3792 83.9938V85.8481H77.5224Z" fill="black"/>
<rect width="62.064" height="62.064" transform="translate(109.934 30.4678)" fill="#59CECE"/>
<path d="M129.057 61.0656C129.041 60.9034 128.972 60.7773 128.85 60.6875C128.728 60.5977 128.563 60.5527 128.353 60.5527C128.211 60.5527 128.091 60.5729 127.993 60.6131C127.896 60.652 127.82 60.7063 127.768 60.776C127.717 60.8457 127.692 60.9248 127.692 61.0133C127.689 61.0871 127.704 61.1514 127.738 61.2064C127.773 61.2614 127.82 61.309 127.881 61.3492C127.941 61.3881 128.011 61.4223 128.09 61.4518C128.169 61.4799 128.254 61.5041 128.343 61.5242L128.713 61.6127C128.893 61.6529 129.058 61.7065 129.208 61.7736C129.358 61.8406 129.488 61.9231 129.598 62.0209C129.708 62.1188 129.793 62.2341 129.854 62.3669C129.915 62.4996 129.947 62.6518 129.948 62.8234C129.947 63.0755 129.883 63.2941 129.755 63.4791C129.629 63.6628 129.447 63.8056 129.208 63.9075C128.971 64.008 128.685 64.0583 128.349 64.0583C128.017 64.0583 127.727 64.0074 127.481 63.9055C127.235 63.8036 127.043 63.6527 126.905 63.4529C126.769 63.2518 126.697 63.0031 126.69 62.7068H127.533C127.542 62.8449 127.582 62.9602 127.651 63.0527C127.723 63.1439 127.817 63.2129 127.935 63.2599C128.054 63.3055 128.189 63.3282 128.339 63.3282C128.487 63.3282 128.615 63.3068 128.723 63.2639C128.833 63.221 128.919 63.1613 128.979 63.0849C129.039 63.0085 129.069 62.9206 129.069 62.8214C129.069 62.7289 129.042 62.6511 128.987 62.5881C128.933 62.5251 128.854 62.4715 128.75 62.4272C128.646 62.383 128.52 62.3427 128.369 62.3065L127.921 62.1939C127.574 62.1094 127.3 61.9774 127.098 61.7977C126.897 61.618 126.797 61.376 126.799 61.0716C126.797 60.8223 126.864 60.6044 126.998 60.418C127.133 60.2316 127.319 60.0861 127.555 59.9816C127.791 59.877 128.059 59.8247 128.359 59.8247C128.665 59.8247 128.932 59.877 129.16 59.9816C129.389 60.0861 129.568 60.2316 129.695 60.418C129.822 60.6044 129.888 60.8202 129.892 61.0656H129.057ZM130.518 64V60.9107H131.375V64H130.518ZM130.948 60.5125C130.821 60.5125 130.712 60.4703 130.621 60.3858C130.531 60.3 130.486 60.1974 130.486 60.0781C130.486 59.9601 130.531 59.8589 130.621 59.7744C130.712 59.6886 130.821 59.6457 130.948 59.6457C131.076 59.6457 131.184 59.6886 131.274 59.7744C131.365 59.8589 131.411 59.9601 131.411 60.0781C131.411 60.1974 131.365 60.3 131.274 60.3858C131.184 60.4703 131.076 60.5125 130.948 60.5125ZM133.199 64.0503C132.965 64.0503 132.752 63.9899 132.562 63.8693C132.373 63.7473 132.223 63.5683 132.111 63.3323C132.001 63.0949 131.946 62.804 131.946 62.4594C131.946 62.1054 132.003 61.8111 132.117 61.5765C132.231 61.3405 132.383 61.1642 132.572 61.0475C132.762 60.9295 132.971 60.8705 133.197 60.8705C133.37 60.8705 133.515 60.9 133.63 60.959C133.747 61.0167 133.84 61.0891 133.911 61.1762C133.984 61.262 134.039 61.3465 134.076 61.4296H134.103V59.881H134.957V64H134.113V63.5052H134.076C134.036 63.591 133.979 63.6762 133.905 63.7607C133.833 63.8438 133.738 63.9128 133.622 63.9678C133.507 64.0228 133.366 64.0503 133.199 64.0503ZM133.471 63.3685C133.609 63.3685 133.726 63.3309 133.821 63.2558C133.917 63.1794 133.991 63.0728 134.042 62.9361C134.094 62.7993 134.121 62.6391 134.121 62.4554C134.121 62.2717 134.095 62.1121 134.044 61.9767C133.993 61.8413 133.919 61.7367 133.823 61.6629C133.726 61.5892 133.609 61.5523 133.471 61.5523C133.33 61.5523 133.212 61.5905 133.115 61.667C133.018 61.7434 132.945 61.8493 132.896 61.9847C132.846 62.1202 132.821 62.277 132.821 62.4554C132.821 62.635 132.846 62.7939 132.896 62.932C132.947 63.0688 133.02 63.1761 133.115 63.2538C133.212 63.3303 133.33 63.3685 133.471 63.3685ZM136.543 64.0583C136.346 64.0583 136.17 64.0241 136.016 63.9558C135.861 63.886 135.739 63.7835 135.65 63.648C135.561 63.5113 135.517 63.341 135.517 63.1372C135.517 62.9656 135.548 62.8214 135.611 62.7048C135.674 62.5881 135.76 62.4943 135.869 62.4232C135.977 62.3521 136.101 62.2985 136.239 62.2623C136.378 62.2261 136.525 62.2006 136.677 62.1859C136.857 62.1671 137.002 62.1497 137.112 62.1336C137.222 62.1161 137.302 62.0907 137.351 62.0571C137.401 62.0236 137.426 61.974 137.426 61.9083V61.8962C137.426 61.7689 137.385 61.6703 137.305 61.6006C137.226 61.5309 137.113 61.496 136.967 61.496C136.813 61.496 136.69 61.5302 136.599 61.5986C136.508 61.6656 136.447 61.7501 136.418 61.852L135.626 61.7876C135.666 61.5999 135.745 61.4377 135.863 61.3009C135.981 61.1628 136.133 61.0569 136.319 60.9831C136.507 60.9081 136.724 60.8705 136.971 60.8705C137.143 60.8705 137.307 60.8906 137.464 60.9309C137.622 60.9711 137.762 61.0334 137.884 61.1179C138.007 61.2024 138.105 61.311 138.176 61.4437C138.247 61.5751 138.282 61.7327 138.282 61.9164V64H137.47V63.5716H137.446C137.396 63.6681 137.33 63.7533 137.247 63.827C137.163 63.8994 137.064 63.9564 136.947 63.998C136.83 64.0382 136.695 64.0583 136.543 64.0583ZM136.788 63.467C136.914 63.467 137.025 63.4422 137.122 63.3926C137.218 63.3417 137.294 63.2733 137.349 63.1875C137.404 63.1016 137.432 63.0044 137.432 62.8958V62.568C137.405 62.5854 137.368 62.6015 137.321 62.6163C137.275 62.6297 137.224 62.6424 137.166 62.6545C137.108 62.6652 137.051 62.6753 136.993 62.6847C136.935 62.6927 136.883 62.7001 136.836 62.7068C136.736 62.7215 136.648 62.745 136.573 62.7772C136.498 62.8093 136.439 62.8529 136.398 62.9079C136.356 62.9615 136.335 63.0286 136.335 63.109C136.335 63.2257 136.378 63.3148 136.462 63.3765C136.548 63.4369 136.657 63.467 136.788 63.467ZM140.741 59.6879L139.414 64.6195H138.676L140.003 59.6879H140.741ZM141.154 65.1585V60.9107H141.999V61.4296H142.037C142.074 61.3465 142.129 61.262 142.2 61.1762C142.272 61.0891 142.366 61.0167 142.481 60.959C142.598 60.9 142.743 60.8705 142.916 60.8705C143.141 60.8705 143.349 60.9295 143.539 61.0475C143.73 61.1642 143.882 61.3405 143.996 61.5765C144.11 61.8111 144.167 62.1054 144.167 62.4594C144.167 62.804 144.111 63.0949 144 63.3323C143.89 63.5683 143.74 63.7473 143.549 63.8693C143.36 63.9899 143.148 64.0503 142.914 64.0503C142.747 64.0503 142.606 64.0228 142.489 63.9678C142.374 63.9128 142.28 63.8438 142.206 63.7607C142.132 63.6762 142.076 63.591 142.037 63.5052H142.011V65.1585H141.154ZM141.993 62.4554C141.993 62.6391 142.018 62.7993 142.069 62.9361C142.12 63.0728 142.194 63.1794 142.29 63.2558C142.387 63.3309 142.504 63.3685 142.642 63.3685C142.782 63.3685 142.9 63.3303 142.996 63.2538C143.093 63.1761 143.166 63.0688 143.215 62.932C143.266 62.7939 143.292 62.635 143.292 62.4554C143.292 62.277 143.267 62.1202 143.217 61.9847C143.168 61.8493 143.095 61.7434 142.998 61.667C142.902 61.5905 142.783 61.5523 142.642 61.5523C142.503 61.5523 142.385 61.5892 142.288 61.6629C142.193 61.7367 142.12 61.8413 142.069 61.9767C142.018 62.1121 141.993 62.2717 141.993 62.4554ZM145.619 64.0583C145.422 64.0583 145.246 64.0241 145.092 63.9558C144.938 63.886 144.816 63.7835 144.726 63.648C144.637 63.5113 144.593 63.341 144.593 63.1372C144.593 62.9656 144.625 62.8214 144.688 62.7048C144.751 62.5881 144.836 62.4943 144.945 62.4232C145.054 62.3521 145.177 62.2985 145.315 62.2623C145.455 62.2261 145.601 62.2006 145.754 62.1859C145.933 62.1671 146.078 62.1497 146.188 62.1336C146.298 62.1161 146.378 62.0907 146.427 62.0571C146.477 62.0236 146.502 61.974 146.502 61.9083V61.8962C146.502 61.7689 146.462 61.6703 146.381 61.6006C146.302 61.5309 146.189 61.496 146.043 61.496C145.889 61.496 145.766 61.5302 145.675 61.5986C145.584 61.6656 145.524 61.7501 145.494 61.852L144.702 61.7876C144.742 61.5999 144.821 61.4377 144.939 61.3009C145.057 61.1628 145.209 61.0569 145.396 60.9831C145.583 60.9081 145.801 60.8705 146.047 60.8705C146.219 60.8705 146.383 60.8906 146.54 60.9309C146.698 60.9711 146.838 61.0334 146.96 61.1179C147.084 61.2024 147.181 61.311 147.252 61.4437C147.323 61.5751 147.359 61.7327 147.359 61.9164V64H146.546V63.5716H146.522C146.472 63.6681 146.406 63.7533 146.323 63.827C146.24 63.8994 146.14 63.9564 146.023 63.998C145.906 64.0382 145.772 64.0583 145.619 64.0583ZM145.864 63.467C145.99 63.467 146.102 63.4422 146.198 63.3926C146.295 63.3417 146.37 63.2733 146.425 63.1875C146.48 63.1016 146.508 63.0044 146.508 62.8958V62.568C146.481 62.5854 146.444 62.6015 146.397 62.6163C146.352 62.6297 146.3 62.6424 146.242 62.6545C146.185 62.6652 146.127 62.6753 146.069 62.6847C146.012 62.6927 145.959 62.7001 145.912 62.7068C145.812 62.7215 145.724 62.745 145.649 62.7772C145.574 62.8093 145.516 62.8529 145.474 62.9079C145.432 62.9615 145.412 63.0286 145.412 63.109C145.412 63.2257 145.454 63.3148 145.538 63.3765C145.624 63.4369 145.733 63.467 145.864 63.467ZM149.415 65.2228C149.137 65.2228 148.899 65.1846 148.701 65.1082C148.504 65.0331 148.347 64.9305 148.23 64.8005C148.114 64.6704 148.038 64.5243 148.003 64.362L148.796 64.2554C148.82 64.3171 148.858 64.3748 148.91 64.4284C148.963 64.482 149.032 64.5249 149.117 64.5571C149.205 64.5906 149.31 64.6074 149.435 64.6074C149.622 64.6074 149.775 64.5618 149.896 64.4706C150.018 64.3808 150.079 64.23 150.079 64.0181V63.4529H150.043C150.005 63.5388 149.949 63.6199 149.874 63.6963C149.799 63.7727 149.702 63.8351 149.584 63.8833C149.466 63.9316 149.325 63.9558 149.162 63.9558C148.93 63.9558 148.718 63.9021 148.528 63.7949C148.339 63.6862 148.188 63.5207 148.076 63.2981C147.964 63.0742 147.909 62.7912 147.909 62.4493C147.909 62.0994 147.966 61.8071 148.08 61.5724C148.194 61.3378 148.345 61.1621 148.534 61.0455C148.725 60.9288 148.933 60.8705 149.16 60.8705C149.333 60.8705 149.477 60.9 149.594 60.959C149.711 61.0167 149.805 61.0891 149.876 61.1762C149.948 61.262 150.004 61.3465 150.043 61.4296H150.075V60.9107H150.925V64.0302C150.925 64.293 150.861 64.5129 150.732 64.6899C150.604 64.8668 150.425 64.9996 150.197 65.0881C149.971 65.1779 149.71 65.2228 149.415 65.2228ZM149.433 63.3122C149.571 63.3122 149.688 63.278 149.783 63.2096C149.88 63.1399 149.953 63.0406 150.004 62.9119C150.057 62.7819 150.083 62.6263 150.083 62.4453C150.083 62.2643 150.057 62.1074 150.006 61.9747C149.955 61.8406 149.882 61.7367 149.785 61.6629C149.689 61.5892 149.571 61.5523 149.433 61.5523C149.292 61.5523 149.174 61.5905 149.077 61.667C148.981 61.7421 148.908 61.8466 148.858 61.9807C148.808 62.1148 148.784 62.2697 148.784 62.4453C148.784 62.6236 148.808 62.7778 148.858 62.9079C148.909 63.0366 148.982 63.1365 149.077 63.2076C149.174 63.2773 149.292 63.3122 149.433 63.3122ZM153.015 64.0603C152.697 64.0603 152.424 63.996 152.195 63.8673C151.967 63.7372 151.791 63.5535 151.668 63.3162C151.544 63.0775 151.483 62.7953 151.483 62.4695C151.483 62.1517 151.544 61.8728 151.668 61.6328C151.791 61.3928 151.965 61.2057 152.189 61.0716C152.414 60.9376 152.678 60.8705 152.981 60.8705C153.185 60.8705 153.374 60.9034 153.55 60.9691C153.727 61.0334 153.881 61.1306 154.013 61.2607C154.145 61.3908 154.249 61.5543 154.322 61.7514C154.396 61.9472 154.433 62.1765 154.433 62.4393V62.6746H151.824V62.1436H153.627C153.627 62.0203 153.6 61.911 153.546 61.8158C153.492 61.7206 153.418 61.6462 153.323 61.5926C153.229 61.5376 153.12 61.5101 152.995 61.5101C152.865 61.5101 152.75 61.5403 152.649 61.6006C152.55 61.6596 152.472 61.7394 152.416 61.8399C152.359 61.9392 152.331 62.0498 152.329 62.1718V62.6766C152.329 62.8295 152.357 62.9615 152.414 63.0728C152.471 63.1841 152.553 63.2699 152.657 63.3303C152.762 63.3906 152.886 63.4208 153.029 63.4208C153.124 63.4208 153.212 63.4074 153.291 63.3805C153.37 63.3537 153.438 63.3135 153.494 63.2599C153.55 63.2062 153.593 63.1405 153.623 63.0628L154.415 63.1151C154.375 63.3055 154.292 63.4717 154.168 63.6138C154.044 63.7546 153.885 63.8646 153.689 63.9437C153.494 64.0215 153.27 64.0603 153.015 64.0603Z" fill="black"/>
<rect width="62.064" height="62.064" transform="translate(185.803 30.4678)" fill="#7B9FF3"/>
<path d="M194.692 64V59.881H195.563V61.5805H197.331V59.881H198.2V64H197.331V62.2985H195.563V64H194.692ZM199.782 64.0583C199.585 64.0583 199.41 64.0241 199.255 63.9558C199.101 63.886 198.979 63.7835 198.889 63.648C198.801 63.5113 198.757 63.341 198.757 63.1372C198.757 62.9656 198.788 62.8214 198.851 62.7048C198.914 62.5881 199 62.4943 199.109 62.4232C199.217 62.3521 199.341 62.2985 199.479 62.2623C199.618 62.2261 199.764 62.2006 199.917 62.1859C200.097 62.1671 200.242 62.1497 200.352 62.1336C200.462 62.1161 200.541 62.0907 200.591 62.0571C200.641 62.0236 200.665 61.974 200.665 61.9083V61.8962C200.665 61.7689 200.625 61.6703 200.545 61.6006C200.466 61.5309 200.353 61.496 200.207 61.496C200.053 61.496 199.93 61.5302 199.839 61.5986C199.748 61.6656 199.687 61.7501 199.658 61.852L198.865 61.7876C198.906 61.5999 198.985 61.4377 199.103 61.3009C199.221 61.1628 199.373 61.0569 199.559 60.9831C199.747 60.9081 199.964 60.8705 200.211 60.8705C200.382 60.8705 200.547 60.8906 200.704 60.9309C200.862 60.9711 201.002 61.0334 201.124 61.1179C201.247 61.2024 201.344 61.311 201.416 61.4437C201.487 61.5751 201.522 61.7327 201.522 61.9164V64H200.71V63.5716H200.685C200.636 63.6681 200.569 63.7533 200.486 63.827C200.403 63.8994 200.303 63.9564 200.187 63.998C200.07 64.0382 199.935 64.0583 199.782 64.0583ZM200.028 63.467C200.154 63.467 200.265 63.4422 200.362 63.3926C200.458 63.3417 200.534 63.2733 200.589 63.1875C200.644 63.1016 200.671 63.0044 200.671 62.8958V62.568C200.645 62.5854 200.608 62.6015 200.561 62.6163C200.515 62.6297 200.464 62.6424 200.406 62.6545C200.348 62.6652 200.291 62.6753 200.233 62.6847C200.175 62.6927 200.123 62.7001 200.076 62.7068C199.975 62.7215 199.888 62.745 199.813 62.7772C199.737 62.8093 199.679 62.8529 199.638 62.9079C199.596 62.9615 199.575 63.0286 199.575 63.109C199.575 63.2257 199.617 63.3148 199.702 63.3765C199.788 63.4369 199.896 63.467 200.028 63.467ZM199.63 60.4884C199.514 60.4884 199.415 60.4482 199.332 60.3677C199.249 60.2859 199.207 60.1894 199.207 60.0781C199.207 59.9641 199.249 59.8676 199.332 59.7885C199.415 59.7094 199.514 59.6698 199.63 59.6698C199.746 59.6698 199.845 59.7094 199.925 59.7885C200.007 59.8676 200.048 59.9641 200.048 60.0781C200.048 60.1894 200.007 60.2859 199.925 60.3677C199.845 60.4482 199.746 60.4884 199.63 60.4884ZM200.86 60.4884C200.745 60.4884 200.646 60.4482 200.563 60.3677C200.48 60.2859 200.438 60.1894 200.438 60.0781C200.438 59.9641 200.48 59.8676 200.563 59.7885C200.646 59.7094 200.745 59.6698 200.86 59.6698C200.977 59.6698 201.076 59.7094 201.156 59.7885C201.238 59.8676 201.279 59.9641 201.279 60.0781C201.279 60.1894 201.238 60.2859 201.156 60.3677C201.076 60.4482 200.977 60.4884 200.86 60.4884ZM203.044 62.214V64H202.187V60.9107H203.003V61.4558H203.04C203.108 61.2761 203.223 61.134 203.384 61.0294C203.544 60.9235 203.74 60.8705 203.969 60.8705C204.183 60.8705 204.37 60.9174 204.53 61.0113C204.689 61.1052 204.814 61.2392 204.902 61.4136C204.991 61.5865 205.035 61.793 205.035 62.033V64H204.178V62.1859C204.179 61.9968 204.131 61.8493 204.033 61.7434C203.935 61.6361 203.801 61.5825 203.629 61.5825C203.514 61.5825 203.412 61.6073 203.323 61.6569C203.236 61.7065 203.168 61.7789 203.118 61.8741C203.07 61.968 203.045 62.0813 203.044 62.214ZM206.848 64.0503C206.614 64.0503 206.401 63.9899 206.211 63.8693C206.022 63.7473 205.872 63.5683 205.76 63.3323C205.65 63.0949 205.595 62.804 205.595 62.4594C205.595 62.1054 205.652 61.8111 205.766 61.5765C205.88 61.3405 206.032 61.1642 206.221 61.0475C206.411 60.9295 206.62 60.8705 206.846 60.8705C207.019 60.8705 207.163 60.9 207.279 60.959C207.395 61.0167 207.489 61.0891 207.56 61.1762C207.633 61.262 207.688 61.3465 207.725 61.4296H207.751V59.881H208.606V64H207.761V63.5052H207.725C207.685 63.591 207.628 63.6762 207.554 63.7607C207.482 63.8438 207.387 63.9128 207.271 63.9678C207.155 64.0228 207.015 64.0503 206.848 64.0503ZM207.12 63.3685C207.258 63.3685 207.375 63.3309 207.47 63.2558C207.566 63.1794 207.64 63.0728 207.691 62.9361C207.743 62.7993 207.77 62.6391 207.77 62.4554C207.77 62.2717 207.744 62.1121 207.693 61.9767C207.642 61.8413 207.568 61.7367 207.472 61.6629C207.375 61.5892 207.258 61.5523 207.12 61.5523C206.979 61.5523 206.86 61.5905 206.764 61.667C206.667 61.7434 206.594 61.8493 206.545 61.9847C206.495 62.1202 206.47 62.277 206.47 62.4554C206.47 62.635 206.495 62.7939 206.545 62.932C206.596 63.0688 206.669 63.1761 206.764 63.2538C206.86 63.3303 206.979 63.3685 207.12 63.3685ZM210.719 64.0603C210.401 64.0603 210.127 63.996 209.898 63.8673C209.67 63.7372 209.494 63.5535 209.371 63.3162C209.248 63.0775 209.186 62.7953 209.186 62.4695C209.186 62.1517 209.248 61.8728 209.371 61.6328C209.494 61.3928 209.668 61.2057 209.892 61.0716C210.117 60.9376 210.381 60.8705 210.684 60.8705C210.888 60.8705 211.078 60.9034 211.253 60.9691C211.43 61.0334 211.585 61.1306 211.716 61.2607C211.849 61.3908 211.952 61.5543 212.026 61.7514C212.1 61.9472 212.136 62.1765 212.136 62.4393V62.6746H209.528V62.1436H211.33C211.33 62.0203 211.303 61.911 211.249 61.8158C211.196 61.7206 211.121 61.6462 211.026 61.5926C210.932 61.5376 210.823 61.5101 210.698 61.5101C210.568 61.5101 210.453 61.5403 210.352 61.6006C210.253 61.6596 210.175 61.7394 210.119 61.8399C210.063 61.9392 210.034 62.0498 210.033 62.1718V62.6766C210.033 62.8295 210.061 62.9615 210.117 63.0728C210.175 63.1841 210.256 63.2699 210.361 63.3303C210.465 63.3906 210.589 63.4208 210.733 63.4208C210.828 63.4208 210.915 63.4074 210.994 63.3805C211.073 63.3537 211.141 63.3135 211.197 63.2599C211.253 63.2062 211.296 63.1405 211.326 63.0628L212.118 63.1151C212.078 63.3055 211.996 63.4717 211.871 63.6138C211.748 63.7546 211.588 63.8646 211.392 63.9437C211.198 64.0215 210.973 64.0603 210.719 64.0603ZM213.552 59.881V64H212.696V59.881H213.552ZM216.809 61.7917L216.025 61.8399C216.011 61.7729 215.982 61.7126 215.938 61.6589C215.894 61.604 215.836 61.5604 215.763 61.5282C215.692 61.4947 215.607 61.4779 215.508 61.4779C215.375 61.4779 215.263 61.5061 215.172 61.5624C215.081 61.6174 215.035 61.6911 215.035 61.7836C215.035 61.8574 215.065 61.9197 215.124 61.9707C215.183 62.0216 215.284 62.0625 215.427 62.0934L215.986 62.206C216.287 62.2677 216.511 62.3669 216.658 62.5036C216.806 62.6404 216.879 62.8201 216.879 63.0427C216.879 63.2451 216.82 63.4228 216.7 63.5756C216.582 63.7285 216.42 63.8478 216.214 63.9336C216.009 64.0181 215.772 64.0603 215.504 64.0603C215.095 64.0603 214.769 63.9752 214.526 63.8049C214.285 63.6333 214.143 63.4 214.102 63.105L214.945 63.0608C214.97 63.1855 215.032 63.2806 215.13 63.3463C215.228 63.4107 215.353 63.4429 215.506 63.4429C215.656 63.4429 215.777 63.4141 215.868 63.3564C215.96 63.2974 216.007 63.2217 216.009 63.1291C216.007 63.0514 215.974 62.9877 215.91 62.9381C215.846 62.8871 215.746 62.8482 215.612 62.8214L215.077 62.7148C214.776 62.6545 214.551 62.5499 214.404 62.4011C214.257 62.2522 214.184 62.0625 214.184 61.8319C214.184 61.6334 214.238 61.4625 214.345 61.319C214.454 61.1756 214.606 61.0649 214.802 60.9872C214.999 60.9094 215.23 60.8705 215.494 60.8705C215.884 60.8705 216.191 60.953 216.415 61.1179C216.64 61.2828 216.771 61.5074 216.809 61.7917ZM218.827 64.0603C218.509 64.0603 218.235 63.996 218.006 63.8673C217.778 63.7372 217.603 63.5535 217.479 63.3162C217.356 63.0775 217.294 62.7953 217.294 62.4695C217.294 62.1517 217.356 61.8728 217.479 61.6328C217.603 61.3928 217.776 61.2057 218 61.0716C218.225 60.9376 218.49 60.8705 218.793 60.8705C218.996 60.8705 219.186 60.9034 219.362 60.9691C219.539 61.0334 219.693 61.1306 219.824 61.2607C219.957 61.3908 220.06 61.5543 220.134 61.7514C220.208 61.9472 220.245 62.1765 220.245 62.4393V62.6746H217.636V62.1436H219.438C219.438 62.0203 219.411 61.911 219.358 61.8158C219.304 61.7206 219.23 61.6462 219.135 61.5926C219.041 61.5376 218.931 61.5101 218.807 61.5101C218.677 61.5101 218.561 61.5403 218.461 61.6006C218.362 61.6596 218.284 61.7394 218.227 61.8399C218.171 61.9392 218.142 62.0498 218.141 62.1718V62.6766C218.141 62.8295 218.169 62.9615 218.225 63.0728C218.283 63.1841 218.364 63.2699 218.469 63.3303C218.573 63.3906 218.697 63.4208 218.841 63.4208C218.936 63.4208 219.023 63.4074 219.102 63.3805C219.181 63.3537 219.249 63.3135 219.305 63.2599C219.362 63.2062 219.405 63.1405 219.434 63.0628L220.227 63.1151C220.186 63.3055 220.104 63.4717 219.979 63.6138C219.856 63.7546 219.696 63.8646 219.501 63.9437C219.306 64.0215 219.082 64.0603 218.827 64.0603ZM222.598 59.6879L221.27 64.6195H220.532L221.86 59.6879H222.598ZM223.027 64V59.881H225.802V60.599H223.898V61.5805H225.659V62.2985H223.898V63.282H225.81V64H223.027ZM229.359 60.9107L228.279 64H227.313L226.233 60.9107H227.138L227.78 63.1211H227.812L228.452 60.9107H229.359ZM231.105 64.0603C230.788 64.0603 230.514 63.996 230.285 63.8673C230.057 63.7372 229.881 63.5535 229.758 63.3162C229.634 63.0775 229.573 62.7953 229.573 62.4695C229.573 62.1517 229.634 61.8728 229.758 61.6328C229.881 61.3928 230.055 61.2057 230.279 61.0716C230.504 60.9376 230.768 60.8705 231.071 60.8705C231.275 60.8705 231.465 60.9034 231.64 60.9691C231.817 61.0334 231.972 61.1306 232.103 61.2607C232.236 61.3908 232.339 61.5543 232.413 61.7514C232.486 61.9472 232.523 62.1765 232.523 62.4393V62.6746H229.915V62.1436H231.717C231.717 62.0203 231.69 61.911 231.636 61.8158C231.583 61.7206 231.508 61.6462 231.413 61.5926C231.319 61.5376 231.21 61.5101 231.085 61.5101C230.955 61.5101 230.84 61.5403 230.739 61.6006C230.64 61.6596 230.562 61.7394 230.506 61.8399C230.45 61.9392 230.421 62.0498 230.42 62.1718V62.6766C230.42 62.8295 230.448 62.9615 230.504 63.0728C230.562 63.1841 230.643 63.2699 230.747 63.3303C230.852 63.3906 230.976 63.4208 231.119 63.4208C231.215 63.4208 231.302 63.4074 231.381 63.3805C231.46 63.3537 231.528 63.3135 231.584 63.2599C231.64 63.2062 231.683 63.1405 231.713 63.0628L232.505 63.1151C232.465 63.3055 232.383 63.4717 232.258 63.6138C232.134 63.7546 231.975 63.8646 231.779 63.9437C231.585 64.0215 231.36 64.0603 231.105 64.0603ZM233.939 62.214V64H233.082V60.9107H233.899V61.4558H233.935C234.004 61.2761 234.118 61.134 234.279 61.0294C234.44 60.9235 234.635 60.8705 234.864 60.8705C235.079 60.8705 235.266 60.9174 235.426 61.0113C235.585 61.1052 235.709 61.2392 235.798 61.4136C235.886 61.5865 235.93 61.793 235.93 62.033V64H235.074V62.1859C235.075 61.9968 235.027 61.8493 234.929 61.7434C234.831 61.6361 234.696 61.5825 234.524 61.5825C234.409 61.5825 234.307 61.6073 234.219 61.6569C234.132 61.7065 234.063 61.7789 234.014 61.8741C233.965 61.968 233.941 62.0813 233.939 62.214ZM238.249 60.9107V61.5543H236.388V60.9107H238.249ZM236.811 60.1706H237.668V63.0507C237.668 63.1298 237.68 63.1915 237.704 63.2357C237.728 63.2786 237.761 63.3088 237.804 63.3262C237.849 63.3437 237.899 63.3524 237.957 63.3524C237.997 63.3524 238.038 63.349 238.078 63.3423C238.118 63.3343 238.149 63.3282 238.17 63.3242L238.305 63.9618C238.262 63.9752 238.202 63.9906 238.124 64.008C238.046 64.0268 237.952 64.0382 237.84 64.0422C237.634 64.0503 237.453 64.0228 237.297 63.9598C237.143 63.8968 237.023 63.7989 236.937 63.6661C236.852 63.5334 236.809 63.3658 236.811 63.1633V60.1706Z" fill="black"/>
<rect x="261.672" y="61.3569" width="53.6012" height="53.6012" transform="rotate(-44.7833 261.672 61.3569)" fill="#EE5757"/>
<path d="M284.803 62.2031V58.0841H286.453C286.756 58.0841 287.008 58.129 287.211 58.2189C287.413 58.3087 287.565 58.4334 287.667 58.593C287.769 58.7512 287.82 58.9335 287.82 59.14C287.82 59.3009 287.788 59.4424 287.724 59.5644C287.659 59.6851 287.571 59.7843 287.458 59.862C287.347 59.9385 287.219 59.9928 287.076 60.025V60.0652C287.233 60.0719 287.38 60.1161 287.516 60.1979C287.655 60.2797 287.767 60.3944 287.852 60.5418C287.938 60.688 287.981 60.8623 287.981 61.0648C287.981 61.2833 287.927 61.4784 287.818 61.65C287.711 61.8203 287.552 61.9551 287.341 62.0543C287.131 62.1535 286.872 62.2031 286.563 62.2031H284.803ZM285.674 61.4911H286.384C286.627 61.4911 286.804 61.4449 286.915 61.3524C287.026 61.2585 287.082 61.1338 287.082 60.9783C287.082 60.8643 287.055 60.7638 287 60.6766C286.945 60.5894 286.866 60.5211 286.764 60.4715C286.664 60.4218 286.544 60.397 286.404 60.397H285.674V61.4911ZM285.674 59.8077H286.32C286.439 59.8077 286.545 59.787 286.638 59.7454C286.731 59.7025 286.805 59.6422 286.859 59.5644C286.914 59.4866 286.941 59.3934 286.941 59.2848C286.941 59.136 286.888 59.016 286.782 58.9248C286.678 58.8336 286.529 58.788 286.336 58.788H285.674V59.8077ZM289.94 62.2635C289.622 62.2635 289.348 62.1991 289.119 62.0704C288.891 61.9403 288.715 61.7566 288.592 61.5193C288.469 61.2806 288.407 60.9984 288.407 60.6726C288.407 60.3548 288.469 60.0759 288.592 59.8359C288.715 59.5959 288.889 59.4089 289.113 59.2748C289.338 59.1407 289.602 59.0736 289.905 59.0736C290.109 59.0736 290.299 59.1065 290.474 59.1722C290.651 59.2366 290.806 59.3338 290.937 59.4638C291.07 59.5939 291.173 59.7575 291.247 59.9546C291.321 60.1503 291.357 60.3796 291.357 60.6424V60.8777H288.749V60.3468H290.551C290.551 60.2234 290.524 60.1141 290.47 60.0189C290.417 59.9237 290.342 59.8493 290.247 59.7957C290.153 59.7407 290.044 59.7132 289.919 59.7132C289.789 59.7132 289.674 59.7434 289.573 59.8037C289.474 59.8627 289.396 59.9425 289.34 60.0431C289.284 60.1423 289.255 60.2529 289.254 60.3749V60.8797C289.254 61.0326 289.282 61.1647 289.338 61.2759C289.396 61.3872 289.477 61.473 289.582 61.5334C289.686 61.5937 289.81 61.6239 289.954 61.6239C290.049 61.6239 290.136 61.6105 290.215 61.5837C290.294 61.5568 290.362 61.5166 290.418 61.463C290.474 61.4094 290.517 61.3437 290.547 61.2659L291.339 61.3182C291.299 61.5086 291.217 61.6748 291.092 61.817C290.969 61.9578 290.809 62.0677 290.613 62.1468C290.419 62.2246 290.194 62.2635 289.94 62.2635ZM294.487 59.9948L293.703 60.0431C293.689 59.976 293.66 59.9157 293.616 59.862C293.572 59.8071 293.513 59.7635 293.441 59.7313C293.37 59.6978 293.285 59.681 293.186 59.681C293.053 59.681 292.941 59.7092 292.85 59.7655C292.759 59.8205 292.713 59.8942 292.713 59.9867C292.713 60.0605 292.742 60.1228 292.801 60.1738C292.86 60.2247 292.962 60.2656 293.105 60.2965L293.664 60.4091C293.965 60.4708 294.189 60.57 294.336 60.7068C294.484 60.8435 294.557 61.0232 294.557 61.2458C294.557 61.4482 294.498 61.6259 294.378 61.7788C294.26 61.9316 294.098 62.0509 293.892 62.1368C293.686 62.2212 293.45 62.2635 293.182 62.2635C292.773 62.2635 292.447 62.1783 292.204 62.008C291.963 61.8364 291.821 61.6031 291.78 61.3081L292.622 61.2639C292.648 61.3886 292.71 61.4838 292.808 61.5495C292.905 61.6138 293.031 61.646 293.184 61.646C293.334 61.646 293.454 61.6172 293.546 61.5595C293.638 61.5005 293.685 61.4248 293.686 61.3323C293.685 61.2545 293.652 61.1908 293.588 61.1412C293.524 61.0902 293.424 61.0514 293.29 61.0245L292.755 60.9179C292.454 60.8576 292.229 60.753 292.081 60.6042C291.935 60.4554 291.862 60.2656 291.862 60.035C291.862 59.8366 291.916 59.6656 292.023 59.5222C292.132 59.3787 292.284 59.2681 292.48 59.1903C292.677 59.1125 292.907 59.0736 293.172 59.0736C293.562 59.0736 293.869 59.1561 294.093 59.321C294.318 59.4859 294.449 59.7105 294.487 59.9948ZM295.954 58.0841V62.2031H295.097V58.0841H295.954ZM298.621 60.8878V59.1139H299.478V62.2031H298.655V61.642H298.623C298.553 61.823 298.437 61.9685 298.275 62.0784C298.114 62.1884 297.918 62.2433 297.686 62.2433C297.479 62.2433 297.298 62.1964 297.141 62.1026C296.984 62.0087 296.861 61.8753 296.773 61.7023C296.686 61.5294 296.641 61.3222 296.64 61.0809V59.1139H297.497V60.928C297.498 61.1104 297.547 61.2545 297.644 61.3604C297.74 61.4663 297.869 61.5193 298.032 61.5193C298.135 61.5193 298.231 61.4958 298.321 61.4489C298.411 61.4006 298.484 61.3296 298.539 61.2357C298.595 61.1419 298.622 61.0259 298.621 60.8878ZM301.806 59.1139V59.7575H299.946V59.1139H301.806ZM300.368 58.3737H301.225V61.2538C301.225 61.3329 301.237 61.3946 301.261 61.4389C301.285 61.4818 301.319 61.5119 301.362 61.5294C301.406 61.5468 301.457 61.5555 301.515 61.5555C301.555 61.5555 301.595 61.5522 301.635 61.5455C301.676 61.5374 301.706 61.5314 301.728 61.5274L301.863 62.1649C301.82 62.1783 301.759 62.1937 301.682 62.2112C301.604 62.2299 301.509 62.2413 301.398 62.2454C301.192 62.2534 301.011 62.2259 300.855 62.1629C300.701 62.0999 300.581 62.002 300.495 61.8693C300.409 61.7365 300.367 61.5689 300.368 61.3665V58.3737ZM304.158 57.891L302.831 62.8226H302.093L303.42 57.891H304.158ZM305.381 58.0841L306.377 61.2136H306.415L307.413 58.0841H308.378L306.958 62.2031H305.836L304.414 58.0841H305.381ZM308.858 62.2031V59.1139H309.714V62.2031H308.858ZM309.288 58.7156C309.161 58.7156 309.051 58.6734 308.96 58.5889C308.87 58.5031 308.825 58.4006 308.825 58.2812C308.825 58.1632 308.87 58.062 308.96 57.9775C309.051 57.8917 309.161 57.8488 309.288 57.8488C309.415 57.8488 309.524 57.8917 309.614 57.9775C309.705 58.062 309.751 58.1632 309.751 58.2812C309.751 58.4006 309.705 58.5031 309.614 58.5889C309.524 58.6734 309.415 58.7156 309.288 58.7156ZM311.258 58.0841V62.2031H310.401V58.0841H311.258ZM312.801 58.0841V62.2031H311.944V58.0841H312.801ZM314.263 61.3142L314.265 60.2864H314.39L315.38 59.1139H316.363L315.034 60.6665H314.831L314.263 61.3142ZM313.487 62.2031V58.0841H314.344V62.2031H313.487ZM315.418 62.2031L314.509 60.8576L315.08 60.2522L316.421 62.2031H315.418ZM318.052 62.2635C317.74 62.2635 317.469 62.1971 317.241 62.0643C317.015 61.9303 316.84 61.7439 316.717 61.5052C316.593 61.2652 316.532 60.987 316.532 60.6706C316.532 60.3514 316.593 60.0726 316.717 59.8339C316.84 59.5939 317.015 59.4075 317.241 59.2748C317.469 59.1407 317.74 59.0736 318.052 59.0736C318.364 59.0736 318.634 59.1407 318.861 59.2748C319.088 59.4075 319.264 59.5939 319.387 59.8339C319.511 60.0726 319.573 60.3514 319.573 60.6706C319.573 60.987 319.511 61.2652 319.387 61.5052C319.264 61.7439 319.088 61.9303 318.861 62.0643C318.634 62.1971 318.364 62.2635 318.052 62.2635ZM318.056 61.5998C318.198 61.5998 318.317 61.5595 318.412 61.4791C318.507 61.3973 318.579 61.286 318.627 61.1452C318.677 61.0044 318.702 60.8442 318.702 60.6645C318.702 60.4849 318.677 60.3246 318.627 60.1838C318.579 60.0431 318.507 59.9318 318.412 59.85C318.317 59.7682 318.198 59.7273 318.056 59.7273C317.913 59.7273 317.792 59.7682 317.694 59.85C317.597 59.9318 317.524 60.0431 317.475 60.1838C317.427 60.3246 317.402 60.4849 317.402 60.6645C317.402 60.8442 317.427 61.0044 317.475 61.1452C317.524 61.286 317.597 61.3973 317.694 61.4791C317.792 61.5595 317.913 61.5998 318.056 61.5998ZM320.13 62.2031V59.1139H320.96V59.6529H320.992C321.049 59.4611 321.143 59.3163 321.276 59.2185C321.409 59.1192 321.562 59.0696 321.735 59.0696C321.778 59.0696 321.824 59.0723 321.873 59.0777C321.923 59.083 321.967 59.0904 322.004 59.0998V59.86C321.964 59.848 321.908 59.8372 321.837 59.8279C321.766 59.8185 321.701 59.8138 321.642 59.8138C321.516 59.8138 321.403 59.8413 321.304 59.8962C321.206 59.9499 321.129 60.025 321.071 60.1215C321.015 60.218 320.986 60.3293 320.986 60.4554V62.2031H320.13Z" fill="black"/>
</svg>
