<svg width="8" height="8" viewBox="0 0 8 8" fill="none" xmlns="http://www.w3.org/2000/svg">
<path d="M6.6665 1H1.33317C0.965504 1 0.666504 1.299 0.666504 1.66667V6.33333C0.666504 6.701 0.965504 7 1.33317 7H6.6665C7.03417 7 7.33317 6.701 7.33317 6.33333V1.66667C7.33317 1.299 7.03417 1 6.6665 1ZM6.66684 3C6.6665 3 6.6665 3 6.66684 3H6.51184L5.62284 1.66667H6.6665L6.66684 3ZM3.1785 3L2.2895 1.66667H3.15484L4.04384 3H3.1785ZM4.84517 3L3.95617 1.66667H4.8215L5.7105 3H4.84517ZM1.33317 1.66667H1.48817L2.37717 3H1.33317V1.66667ZM1.33317 6.33333V3.66667H6.6665L6.66717 6.33333H1.33317Z" fill="black"/>
<path d="M3.3335 6L5.16683 5L3.3335 4V6Z" fill="black"/>
</svg>
