<svg width="15" height="15" viewBox="0 0 15 15" fill="none" xmlns="http://www.w3.org/2000/svg">
<rect width="15" height="15" rx="7.5" fill="white"/>
<mask id="path-3-outside-1_242_21" maskUnits="userSpaceOnUse" x="4" y="2" width="7" height="11" fill="black">
<rect fill="white" x="4" y="2" width="7" height="11"/>
<path d="M4.75852 12V3.27273H6.60369V10.4787H10.3452V12H4.75852Z"/>
</mask>
<path d="M4.75852 12V3.27273H6.60369V10.4787H10.3452V12H4.75852Z" fill="black"/>
<path d="M4.75852 12H4.25852V12.5H4.75852V12ZM4.75852 3.27273V2.77273H4.25852V3.27273H4.75852ZM6.60369 3.27273H7.10369V2.77273H6.60369V3.27273ZM6.60369 10.4787H6.10369V10.9787H6.60369V10.4787ZM10.3452 10.4787H10.8452V9.97869H10.3452V10.4787ZM10.3452 12V12.5H10.8452V12H10.3452ZM5.25852 12V3.27273H4.25852V12H5.25852ZM4.75852 3.77273H6.60369V2.77273H4.75852V3.77273ZM6.10369 3.27273V10.4787H7.10369V3.27273H6.10369ZM6.60369 10.9787H10.3452V9.97869H6.60369V10.9787ZM9.84517 10.4787V12H10.8452V10.4787H9.84517ZM10.3452 11.5H4.75852V12.5H10.3452V11.5Z" fill="black" mask="url(#path-3-outside-1_242_21)"/>
</svg>
