<svg width="24" height="24" viewBox="0 0 24 24" fill="none" xmlns="http://www.w3.org/2000/svg">
<g clip-path="url(#clip0_240_13)">
<path d="M14.486 3.143C14.7412 3.21479 14.9575 3.38501 15.0873 3.61623C15.217 3.84744 15.2497 4.12073 15.178 4.376L10.748 20.164C10.7125 20.2905 10.6525 20.4087 10.5714 20.512C10.4902 20.6152 10.3895 20.7015 10.275 20.7659C10.1605 20.8302 10.0345 20.8714 9.90407 20.887C9.77366 20.9027 9.64145 20.8925 9.51499 20.857C9.38853 20.8215 9.27028 20.7615 9.16702 20.6804C9.06375 20.5992 8.97748 20.4985 8.91313 20.384C8.84877 20.2695 8.80761 20.1435 8.79197 20.0131C8.77633 19.8827 8.78653 19.7505 8.82199 19.624L13.252 3.836C13.2874 3.70942 13.3475 3.59106 13.4287 3.48771C13.5099 3.38435 13.6107 3.29802 13.7253 3.23366C13.8399 3.16929 13.9661 3.12816 14.0966 3.1126C14.2271 3.09704 14.3595 3.10737 14.486 3.143ZM7.20699 7.05C7.39446 7.23753 7.49977 7.49184 7.49977 7.757C7.49977 8.02216 7.39446 8.27647 7.20699 8.464L3.67199 12L7.20699 15.535C7.2999 15.6278 7.37361 15.7381 7.42392 15.8594C7.47423 15.9807 7.50014 16.1108 7.50019 16.2421C7.50024 16.3735 7.47441 16.5036 7.42419 16.6249C7.37397 16.7463 7.30033 16.8566 7.20749 16.9495C7.11464 17.0424 7.00441 17.1161 6.88308 17.1664C6.76174 17.2167 6.63169 17.2427 6.50034 17.2427C6.36899 17.2427 6.23892 17.2169 6.11755 17.1667C5.99619 17.1165 5.8859 17.0428 5.79299 16.95L1.54999 12.707C1.36252 12.5195 1.2572 12.2652 1.2572 12C1.2572 11.7348 1.36252 11.4805 1.54999 11.293L5.79299 7.05C5.98052 6.86253 6.23482 6.75721 6.49999 6.75721C6.76515 6.75721 7.01946 6.86253 7.20699 7.05ZM16.793 8.464C16.6975 8.37175 16.6213 8.26141 16.5689 8.1394C16.5165 8.0174 16.4889 7.88618 16.4877 7.7534C16.4866 7.62062 16.5119 7.48894 16.5622 7.36605C16.6124 7.24315 16.6867 7.1315 16.7806 7.0376C16.8745 6.94371 16.9861 6.86946 17.109 6.81918C17.2319 6.7689 17.3636 6.7436 17.4964 6.74475C17.6292 6.7459 17.7604 6.77349 17.8824 6.8259C18.0044 6.87831 18.1147 6.95449 18.207 7.05L22.45 11.293C22.6375 11.4805 22.7428 11.7348 22.7428 12C22.7428 12.2652 22.6375 12.5195 22.45 12.707L18.207 16.95C18.0193 17.1375 17.7649 17.2428 17.4996 17.2427C17.2344 17.2426 16.98 17.1371 16.7925 16.9495C16.605 16.7619 16.4997 16.5074 16.4998 16.2421C16.4999 15.9769 16.6053 15.7225 16.793 15.535L20.328 12L16.793 8.464Z" fill="black"/>
</g>
<defs>
<clipPath id="clip0_240_13">
<rect width="24" height="24" fill="white"/>
</clipPath>
</defs>
</svg>
