<svg width="15" height="15" viewBox="0 0 15 15" fill="none" xmlns="http://www.w3.org/2000/svg">
<rect width="15" height="15" rx="7.5" fill="white"/>
<mask id="path-3-outside-1_242_24" maskUnits="userSpaceOnUse" x="2.5" y="4" width="9" height="9" fill="black">
<rect fill="white" x="2.5" y="4" width="9" height="9"/>
<path d="M10.3267 5.45455L8.03835 12H5.9929L3.70455 5.45455H5.62216L6.98153 10.1378H7.04972L8.40483 5.45455H10.3267Z"/>
</mask>
<path d="M10.3267 5.45455L8.03835 12H5.9929L3.70455 5.45455H5.62216L6.98153 10.1378H7.04972L8.40483 5.45455H10.3267Z" fill="black"/>
<path d="M10.3267 5.45455L10.7987 5.61956L11.0312 4.95455H10.3267V5.45455ZM8.03835 12V12.5H8.39322L8.51034 12.165L8.03835 12ZM5.9929 12L5.52091 12.165L5.63803 12.5H5.9929V12ZM3.70455 5.45455V4.95455H3.00006L3.23256 5.61956L3.70455 5.45455ZM5.62216 5.45455L6.10234 5.31517L5.99766 4.95455H5.62216V5.45455ZM6.98153 10.1378L6.50135 10.2772L6.60603 10.6378H6.98153V10.1378ZM7.04972 10.1378V10.6378H7.42555L7.53001 10.2768L7.04972 10.1378ZM8.40483 5.45455V4.95455H8.029L7.92453 5.31557L8.40483 5.45455ZM9.85472 5.28953L7.56637 11.835L8.51034 12.165L10.7987 5.61956L9.85472 5.28953ZM8.03835 11.5H5.9929V12.5H8.03835V11.5ZM6.46488 11.835L4.17653 5.28953L3.23256 5.61956L5.52091 12.165L6.46488 11.835ZM3.70455 5.95455H5.62216V4.95455H3.70455V5.95455ZM5.14198 5.59392L6.50135 10.2772L7.46171 9.99841L6.10234 5.31517L5.14198 5.59392ZM6.98153 10.6378H7.04972V9.63778H6.98153V10.6378ZM7.53001 10.2768L8.88513 5.59352L7.92453 5.31557L6.56942 9.99881L7.53001 10.2768ZM8.40483 5.95455H10.3267V4.95455H8.40483V5.95455Z" fill="black" mask="url(#path-3-outside-1_242_24)"/>
</svg>
