<svg width="1" height="1" viewBox="0 0 1 1" fill="none" xmlns="http://www.w3.org/2000/svg">
<path d="M0.8 0.444444C0.8 0.391167 0.766 0.346611 0.72095 0.335889C0.73895 0.3025 0.75 0.263889 0.75 0.222222C0.75 0.0996667 0.6603 0 0.55 0C0.47415 0 0.40895 0.0476111 0.375 0.116889C0.34105 0.0476111 0.27585 0 0.2 0C0.0897 0 0 0.0996667 0 0.222222C0 0.272333 0.0156 0.318167 0.04085 0.355333C0.0282294 0.365587 0.0179562 0.378996 0.01086 0.394476C0.00376385 0.409955 4.36979e-05 0.427072 0 0.444444V0.888889C0 0.950167 0.04485 1 0.1 1H0.7C0.75515 1 0.8 0.950167 0.8 0.888889V0.742333L1 0.853444V0.464556L0.8 0.575667V0.444444ZM0.55 0.111111C0.60515 0.111111 0.65 0.160944 0.65 0.222222C0.65 0.2835 0.60515 0.333333 0.55 0.333333C0.49485 0.333333 0.45 0.2835 0.45 0.222222C0.45 0.160944 0.49485 0.111111 0.55 0.111111ZM0.2 0.111111C0.25515 0.111111 0.3 0.160944 0.3 0.222222C0.3 0.2835 0.25515 0.333333 0.2 0.333333C0.14485 0.333333 0.1 0.2835 0.1 0.222222C0.1 0.160944 0.14485 0.111111 0.2 0.111111ZM0.1 0.888889V0.444444H0.7L0.7001 0.888889H0.1Z" fill="black"/>
</svg>
