<svg width="44" height="44" viewBox="0 0 44 44" fill="none" xmlns="http://www.w3.org/2000/svg">
<rect width="44" height="44" rx="22" fill="white"/>
<mask id="path-2-outside-1_242_23" maskUnits="userSpaceOnUse" x="1.5" y="16.5" width="40" height="11" fill="black">
<rect fill="white" x="1.5" y="16.5" width="40" height="11"/>
<path d="M5.22301 26.5L2.72585 17.7727H4.74148L6.18608 23.8366H6.25852L7.85227 17.7727H9.57812L11.1676 23.8494H11.2443L12.6889 17.7727H14.7045L12.2074 26.5H10.4091L8.74716 20.794H8.67898L7.02131 26.5H5.22301ZM22.9002 20.8281H21.0337C20.9996 20.5866 20.93 20.3722 20.8249 20.1847C20.7198 19.9943 20.5849 19.8324 20.4201 19.6989C20.2553 19.5653 20.065 19.4631 19.8491 19.392C19.636 19.321 19.4045 19.2855 19.1545 19.2855C18.7028 19.2855 18.3093 19.3977 17.9741 19.6222C17.6388 19.8437 17.3789 20.1676 17.1942 20.5938C17.0096 21.017 16.9173 21.5312 16.9173 22.1364C16.9173 22.7585 17.0096 23.2812 17.1942 23.7045C17.3817 24.1278 17.6431 24.4474 17.9783 24.6634C18.3136 24.8793 18.7013 24.9872 19.1417 24.9872C19.3888 24.9872 19.6175 24.9545 19.8278 24.8892C20.0408 24.8239 20.2298 24.7287 20.3945 24.6037C20.5593 24.4759 20.6957 24.321 20.8036 24.1392C20.9144 23.9574 20.9911 23.75 21.0337 23.517L22.9002 23.5256C22.8519 23.9261 22.7312 24.3125 22.538 24.6847C22.3477 25.054 22.0906 25.3849 21.7667 25.6776C21.4457 25.9673 21.0621 26.1974 20.6161 26.3679C20.1729 26.5355 19.6715 26.6193 19.1119 26.6193C18.3335 26.6193 17.6374 26.4432 17.0238 26.0909C16.413 25.7386 15.93 25.2287 15.5749 24.5611C15.2227 23.8935 15.0465 23.0852 15.0465 22.1364C15.0465 21.1847 15.2255 20.375 15.5835 19.7074C15.9414 19.0398 16.4272 18.5312 17.0408 18.1818C17.6545 17.8295 18.3448 17.6534 19.1119 17.6534C19.6175 17.6534 20.0863 17.7244 20.5181 17.8665C20.9528 18.0085 21.3377 18.2159 21.6729 18.4886C22.0082 18.7585 22.2809 19.0895 22.4911 19.4815C22.7042 19.8736 22.8406 20.3224 22.9002 20.8281ZM25.5636 26.5H23.5863L26.5991 17.7727H28.9769L31.9854 26.5H30.0082L27.8221 19.767H27.7539L25.5636 26.5ZM25.44 23.0696H30.1104V24.5099H25.44V23.0696ZM38.4126 20.5938C38.353 20.3864 38.2692 20.2031 38.1612 20.044C38.0533 19.8821 37.9212 19.7457 37.7649 19.6349C37.6115 19.5213 37.4354 19.4347 37.2365 19.375C37.0405 19.3153 36.8232 19.2855 36.5845 19.2855C36.1385 19.2855 35.7464 19.3963 35.4084 19.6179C35.0732 19.8395 34.8118 20.1619 34.6243 20.5852C34.4368 21.0057 34.343 21.5199 34.343 22.1278C34.343 22.7358 34.4354 23.2528 34.62 23.679C34.8047 24.1051 35.0661 24.4304 35.4041 24.6548C35.7422 24.8764 36.1413 24.9872 36.6016 24.9872C37.0192 24.9872 37.3757 24.9134 37.6712 24.7656C37.9695 24.6151 38.1967 24.4034 38.353 24.1307C38.5121 23.858 38.5916 23.5355 38.5916 23.1634L38.9666 23.2188H36.7166V21.8295H40.3686V22.929C40.3686 23.696 40.2067 24.3551 39.8828 24.9062C39.5589 25.4545 39.1129 25.8778 38.5447 26.1761C37.9766 26.4716 37.326 26.6193 36.593 26.6193C35.7749 26.6193 35.0561 26.4389 34.4368 26.0781C33.8175 25.7145 33.3345 25.1989 32.9879 24.5312C32.6442 23.8608 32.4723 23.0653 32.4723 22.1449C32.4723 21.4375 32.5746 20.8068 32.7791 20.2528C32.9865 19.696 33.2763 19.2244 33.6484 18.8381C34.0206 18.4517 34.4538 18.1577 34.9482 17.956C35.4425 17.7543 35.978 17.6534 36.5547 17.6534C37.049 17.6534 37.5092 17.7259 37.9354 17.8707C38.3615 18.0128 38.7393 18.2145 39.0689 18.4759C39.4013 18.7372 39.6726 19.0483 39.8828 19.4091C40.093 19.767 40.228 20.1619 40.2876 20.5938H38.4126Z"/>
</mask>
<path d="M5.22301 26.5L2.72585 17.7727H4.74148L6.18608 23.8366H6.25852L7.85227 17.7727H9.57812L11.1676 23.8494H11.2443L12.6889 17.7727H14.7045L12.2074 26.5H10.4091L8.74716 20.794H8.67898L7.02131 26.5H5.22301ZM22.9002 20.8281H21.0337C20.9996 20.5866 20.93 20.3722 20.8249 20.1847C20.7198 19.9943 20.5849 19.8324 20.4201 19.6989C20.2553 19.5653 20.065 19.4631 19.8491 19.392C19.636 19.321 19.4045 19.2855 19.1545 19.2855C18.7028 19.2855 18.3093 19.3977 17.9741 19.6222C17.6388 19.8437 17.3789 20.1676 17.1942 20.5938C17.0096 21.017 16.9173 21.5312 16.9173 22.1364C16.9173 22.7585 17.0096 23.2812 17.1942 23.7045C17.3817 24.1278 17.6431 24.4474 17.9783 24.6634C18.3136 24.8793 18.7013 24.9872 19.1417 24.9872C19.3888 24.9872 19.6175 24.9545 19.8278 24.8892C20.0408 24.8239 20.2298 24.7287 20.3945 24.6037C20.5593 24.4759 20.6957 24.321 20.8036 24.1392C20.9144 23.9574 20.9911 23.75 21.0337 23.517L22.9002 23.5256C22.8519 23.9261 22.7312 24.3125 22.538 24.6847C22.3477 25.054 22.0906 25.3849 21.7667 25.6776C21.4457 25.9673 21.0621 26.1974 20.6161 26.3679C20.1729 26.5355 19.6715 26.6193 19.1119 26.6193C18.3335 26.6193 17.6374 26.4432 17.0238 26.0909C16.413 25.7386 15.93 25.2287 15.5749 24.5611C15.2227 23.8935 15.0465 23.0852 15.0465 22.1364C15.0465 21.1847 15.2255 20.375 15.5835 19.7074C15.9414 19.0398 16.4272 18.5312 17.0408 18.1818C17.6545 17.8295 18.3448 17.6534 19.1119 17.6534C19.6175 17.6534 20.0863 17.7244 20.5181 17.8665C20.9528 18.0085 21.3377 18.2159 21.6729 18.4886C22.0082 18.7585 22.2809 19.0895 22.4911 19.4815C22.7042 19.8736 22.8406 20.3224 22.9002 20.8281ZM25.5636 26.5H23.5863L26.5991 17.7727H28.9769L31.9854 26.5H30.0082L27.8221 19.767H27.7539L25.5636 26.5ZM25.44 23.0696H30.1104V24.5099H25.44V23.0696ZM38.4126 20.5938C38.353 20.3864 38.2692 20.2031 38.1612 20.044C38.0533 19.8821 37.9212 19.7457 37.7649 19.6349C37.6115 19.5213 37.4354 19.4347 37.2365 19.375C37.0405 19.3153 36.8232 19.2855 36.5845 19.2855C36.1385 19.2855 35.7464 19.3963 35.4084 19.6179C35.0732 19.8395 34.8118 20.1619 34.6243 20.5852C34.4368 21.0057 34.343 21.5199 34.343 22.1278C34.343 22.7358 34.4354 23.2528 34.62 23.679C34.8047 24.1051 35.0661 24.4304 35.4041 24.6548C35.7422 24.8764 36.1413 24.9872 36.6016 24.9872C37.0192 24.9872 37.3757 24.9134 37.6712 24.7656C37.9695 24.6151 38.1967 24.4034 38.353 24.1307C38.5121 23.858 38.5916 23.5355 38.5916 23.1634L38.9666 23.2188H36.7166V21.8295H40.3686V22.929C40.3686 23.696 40.2067 24.3551 39.8828 24.9062C39.5589 25.4545 39.1129 25.8778 38.5447 26.1761C37.9766 26.4716 37.326 26.6193 36.593 26.6193C35.7749 26.6193 35.0561 26.4389 34.4368 26.0781C33.8175 25.7145 33.3345 25.1989 32.9879 24.5312C32.6442 23.8608 32.4723 23.0653 32.4723 22.1449C32.4723 21.4375 32.5746 20.8068 32.7791 20.2528C32.9865 19.696 33.2763 19.2244 33.6484 18.8381C34.0206 18.4517 34.4538 18.1577 34.9482 17.956C35.4425 17.7543 35.978 17.6534 36.5547 17.6534C37.049 17.6534 37.5092 17.7259 37.9354 17.8707C38.3615 18.0128 38.7393 18.2145 39.0689 18.4759C39.4013 18.7372 39.6726 19.0483 39.8828 19.4091C40.093 19.767 40.228 20.1619 40.2876 20.5938H38.4126Z" fill="black"/>
<path d="M5.22301 26.5L4.7423 26.6375L4.84601 27H5.22301V26.5ZM2.72585 17.7727V17.2727H2.06272L2.24514 17.9103L2.72585 17.7727ZM4.74148 17.7727L5.22787 17.6569L5.13636 17.2727H4.74148V17.7727ZM6.18608 23.8366L5.69969 23.9525L5.7912 24.3366H6.18608V23.8366ZM6.25852 23.8366V24.3366H6.64409L6.7421 23.9637L6.25852 23.8366ZM7.85227 17.7727V17.2727H7.4667L7.3687 17.6456L7.85227 17.7727ZM9.57812 17.7727L10.0619 17.6462L9.96416 17.2727H9.57812V17.7727ZM11.1676 23.8494L10.6839 23.976L10.7816 24.3494H11.1676V23.8494ZM11.2443 23.8494V24.3494H11.6394L11.7308 23.9651L11.2443 23.8494ZM12.6889 17.7727V17.2727H12.2939L12.2025 17.6571L12.6889 17.7727ZM14.7045 17.7727L15.1853 17.9103L15.3677 17.2727H14.7045V17.7727ZM12.2074 26.5V27H12.5844L12.6881 26.6375L12.2074 26.5ZM10.4091 26.5L9.92904 26.6398L10.0339 27H10.4091V26.5ZM8.74716 20.794L9.22721 20.6542L9.12231 20.294H8.74716V20.794ZM8.67898 20.794V20.294H8.30356L8.19883 20.6545L8.67898 20.794ZM7.02131 26.5V27H7.39672L7.50146 26.6395L7.02131 26.5ZM5.70372 26.3625L3.20656 17.6352L2.24514 17.9103L4.7423 26.6375L5.70372 26.3625ZM2.72585 18.2727H4.74148V17.2727H2.72585V18.2727ZM4.25509 17.8886L5.69969 23.9525L6.67247 23.7208L5.22787 17.6569L4.25509 17.8886ZM6.18608 24.3366H6.25852V23.3366H6.18608V24.3366ZM6.7421 23.9637L8.33585 17.8998L7.3687 17.6456L5.77495 23.7096L6.7421 23.9637ZM7.85227 18.2727H9.57812V17.2727H7.85227V18.2727ZM9.0944 17.8993L10.6839 23.976L11.6513 23.7229L10.0619 17.6462L9.0944 17.8993ZM11.1676 24.3494H11.2443V23.3494H11.1676V24.3494ZM11.7308 23.9651L13.1754 17.8884L12.2025 17.6571L10.7579 23.7338L11.7308 23.9651ZM12.6889 18.2727H14.7045V17.2727H12.6889V18.2727ZM14.2238 17.6352L11.7267 26.3625L12.6881 26.6375L15.1853 17.9103L14.2238 17.6352ZM12.2074 26H10.4091V27H12.2074V26ZM10.8891 26.3602L9.22721 20.6542L8.26711 20.9339L9.92904 26.6398L10.8891 26.3602ZM8.74716 20.294H8.67898V21.294H8.74716V20.294ZM8.19883 20.6545L6.54116 26.3605L7.50146 26.6395L9.15913 20.9335L8.19883 20.6545ZM7.02131 26H5.22301V27H7.02131V26ZM22.9002 20.8281V21.3281H23.4627L23.3968 20.7695L22.9002 20.8281ZM21.0337 20.8281L20.5386 20.898L20.5994 21.3281H21.0337V20.8281ZM20.8249 20.1847L20.3872 20.4264L20.3888 20.4292L20.8249 20.1847ZM20.4201 19.6989L20.1053 20.0873L20.1053 20.0873L20.4201 19.6989ZM19.8491 19.392L19.691 19.8664L19.6928 19.867L19.8491 19.392ZM17.9741 19.6222L18.2498 20.0393L18.2522 20.0376L17.9741 19.6222ZM17.1942 20.5938L17.6525 20.7937L17.653 20.7926L17.1942 20.5938ZM17.1942 23.7045L16.7359 23.9045L16.7371 23.907L17.1942 23.7045ZM17.9783 24.6634L17.7076 25.0837L17.7076 25.0837L17.9783 24.6634ZM19.8278 24.8892L19.6812 24.4112L19.6794 24.4117L19.8278 24.8892ZM20.3945 24.6037L20.6967 25.0021L20.701 24.9987L20.3945 24.6037ZM20.8036 24.1392L20.3766 23.879L20.3737 23.8839L20.8036 24.1392ZM21.0337 23.517L21.036 23.0171L20.6173 23.0151L20.5419 23.4271L21.0337 23.517ZM22.9002 23.5256L23.3966 23.5854L23.4638 23.0281L22.9025 23.0256L22.9002 23.5256ZM22.538 24.6847L22.0942 24.4543L22.0936 24.4556L22.538 24.6847ZM21.7667 25.6776L22.1017 26.0487L22.1019 26.0486L21.7667 25.6776ZM20.6161 26.3679L20.793 26.8356L20.7946 26.835L20.6161 26.3679ZM17.0238 26.0909L16.774 26.524L16.7749 26.5245L17.0238 26.0909ZM15.5749 24.5611L15.1327 24.7944L15.1335 24.7959L15.5749 24.5611ZM15.5835 19.7074L16.0241 19.9437L16.0241 19.9437L15.5835 19.7074ZM17.0408 18.1818L17.2883 18.6163L17.2898 18.6154L17.0408 18.1818ZM20.5181 17.8665L20.3619 18.3414L20.3628 18.3417L20.5181 17.8665ZM21.6729 18.4886L21.3574 18.8765L21.3594 18.8781L21.6729 18.4886ZM22.4911 19.4815L22.0505 19.7178L22.0518 19.7203L22.4911 19.4815ZM22.9002 20.3281H21.0337V21.3281H22.9002V20.3281ZM21.5288 20.7582C21.4872 20.4636 21.4003 20.1885 21.2611 19.9402L20.3888 20.4292C20.4598 20.5558 20.5121 20.7097 20.5386 20.898L21.5288 20.7582ZM21.2626 19.9429C21.1272 19.6977 20.951 19.4855 20.7349 19.3104L20.1053 20.0873C20.2188 20.1793 20.3125 20.291 20.3872 20.4264L21.2626 19.9429ZM20.7349 19.3104C20.5197 19.136 20.2747 19.0057 20.0053 18.9171L19.6928 19.867C19.8552 19.9204 19.991 19.9947 20.1053 20.0873L20.7349 19.3104ZM20.0072 18.9177C19.7377 18.8279 19.4522 18.7855 19.1545 18.7855V19.7855C19.3568 19.7855 19.5343 19.8142 19.691 19.8664L20.0072 18.9177ZM19.1545 18.7855C18.616 18.7855 18.1231 18.9207 17.6959 19.2067L18.2522 20.0376C18.4955 19.8748 18.7895 19.7855 19.1545 19.7855V18.7855ZM17.6984 19.205C17.2702 19.4881 16.9525 19.894 16.7355 20.3949L17.653 20.7926C17.8053 20.4412 18.0075 20.1994 18.2498 20.0393L17.6984 19.205ZM16.736 20.3938C16.5167 20.8965 16.4173 21.4828 16.4173 22.1364H17.4173C17.4173 21.5797 17.5025 21.1376 17.6525 20.7937L16.736 20.3938ZM16.4173 22.1364C16.4173 22.8048 16.516 23.4003 16.736 23.9045L17.6525 23.5046C17.5032 23.1622 17.4173 22.7123 17.4173 22.1364H16.4173ZM16.7371 23.907C16.9576 24.4049 17.2777 24.8068 17.7076 25.0837L18.2491 24.243C18.0085 24.088 17.8059 23.8508 17.6514 23.502L16.7371 23.907ZM17.7076 25.0837C18.1319 25.357 18.6157 25.4872 19.1417 25.4872V24.4872C18.787 24.4872 18.4953 24.4016 18.2491 24.243L17.7076 25.0837ZM19.1417 25.4872C19.4331 25.4872 19.7124 25.4487 19.9762 25.3667L19.6794 24.4117C19.5227 24.4604 19.3446 24.4872 19.1417 24.4872V25.4872ZM19.9744 25.3672C20.2392 25.286 20.4817 25.1652 20.6967 25.002L20.0923 24.2053C19.9779 24.2922 19.8425 24.3617 19.6812 24.4112L19.9744 25.3672ZM20.701 24.9987C20.916 24.8319 21.094 24.6294 21.2335 24.3945L20.3737 23.8839C20.2973 24.0126 20.2026 24.1198 20.088 24.2087L20.701 24.9987ZM21.2306 24.3994C21.3766 24.1597 21.4732 23.8935 21.5256 23.607L20.5419 23.4271C20.5091 23.6065 20.4522 23.755 20.3767 23.879L21.2306 24.3994ZM21.0315 24.017L22.8979 24.0256L22.9025 23.0256L21.036 23.0171L21.0315 24.017ZM22.4038 23.4657C22.363 23.8044 22.2609 24.1332 22.0942 24.4543L22.9818 24.915C23.2015 24.4918 23.3409 24.0478 23.3966 23.5854L22.4038 23.4657ZM22.0936 24.4556C21.9322 24.7687 21.713 25.0522 21.4315 25.3066L22.1019 26.0486C22.4681 25.7177 22.7632 25.3392 22.9824 24.9137L22.0936 24.4556ZM21.4317 25.3064C21.161 25.5507 20.832 25.7501 20.4376 25.9008L20.7946 26.835C21.2923 26.6448 21.7303 26.3839 22.1017 26.0487L21.4317 25.3064ZM20.4392 25.9002C20.0618 26.043 19.6218 26.1193 19.1119 26.1193V27.1193C19.7212 27.1193 20.2841 27.028 20.793 26.8356L20.4392 25.9002ZM19.1119 26.1193C18.4118 26.1193 17.8032 25.9618 17.2727 25.6573L16.7749 26.5245C17.4717 26.9246 18.2551 27.1193 19.1119 27.1193V26.1193ZM17.2736 25.6578C16.7499 25.3558 16.3308 24.9174 16.0164 24.3263L15.1335 24.7959C15.5293 25.54 16.0761 26.1215 16.774 26.524L17.2736 25.6578ZM16.0171 24.3277C15.7113 23.7482 15.5465 23.0244 15.5465 22.1364H14.5465C14.5465 23.1461 14.734 24.0387 15.1327 24.7944L16.0171 24.3277ZM15.5465 22.1364C15.5465 21.2464 15.7138 20.5223 16.0241 19.9437L15.1428 19.4711C14.7371 20.2277 14.5465 21.1229 14.5465 22.1364H15.5465ZM16.0241 19.9437C16.341 19.3527 16.7624 18.9158 17.2883 18.6163L16.7934 17.7473C16.092 18.1467 15.5418 18.7269 15.1428 19.4711L16.0241 19.9437ZM17.2898 18.6154C17.8213 18.3103 18.4246 18.1534 19.1119 18.1534V17.1534C18.265 17.1534 17.4876 17.3488 16.7919 17.7482L17.2898 18.6154ZM19.1119 18.1534C19.5704 18.1534 19.9858 18.2177 20.3619 18.3414L20.6743 17.3915C20.1868 17.2311 19.6647 17.1534 19.1119 17.1534V18.1534ZM20.3628 18.3417C20.7426 18.4658 21.0725 18.6447 21.3574 18.8765L21.9885 18.1008C21.6029 17.7871 21.163 17.5512 20.6734 17.3912L20.3628 18.3417ZM21.3594 18.8781C21.6406 19.1045 21.8708 19.3828 22.0505 19.7178L22.9318 19.2452C22.691 18.7962 22.3757 18.4125 21.9865 18.0992L21.3594 18.8781ZM22.0518 19.7203C22.2305 20.0491 22.3504 20.4353 22.4037 20.8867L23.3968 20.7695C23.3307 20.2095 23.1778 19.698 22.9304 19.2428L22.0518 19.7203ZM25.5636 26.5V27H25.9267L26.039 26.6547L25.5636 26.5ZM23.5863 26.5L23.1137 26.3368L22.8847 27H23.5863V26.5ZM26.5991 17.7727V17.2727H26.2427L26.1264 17.6096L26.5991 17.7727ZM28.9769 17.7727L29.4496 17.6098L29.3334 17.2727H28.9769V17.7727ZM31.9854 26.5V27H32.6867L32.4581 26.337L31.9854 26.5ZM30.0082 26.5L29.5326 26.6544L29.6448 27H30.0082V26.5ZM27.8221 19.767L28.2976 19.6126L28.1854 19.267H27.8221V19.767ZM27.7539 19.767V19.267H27.3908L27.2784 19.6124L27.7539 19.767ZM25.44 23.0696V22.5696H24.94V23.0696H25.44ZM30.1104 23.0696H30.6104V22.5696H30.1104V23.0696ZM30.1104 24.5099V25.0099H30.6104V24.5099H30.1104ZM25.44 24.5099H24.94V25.0099H25.44V24.5099ZM25.5636 26H23.5863V27H25.5636V26ZM24.0589 26.6632L27.0717 17.9359L26.1264 17.6096L23.1137 26.3368L24.0589 26.6632ZM26.5991 18.2727H28.9769V17.2727H26.5991V18.2727ZM28.5042 17.9357L31.5127 26.663L32.4581 26.337L29.4496 17.6098L28.5042 17.9357ZM31.9854 26H30.0082V27H31.9854V26ZM30.4837 26.3456L28.2976 19.6126L27.3465 19.9215L29.5326 26.6544L30.4837 26.3456ZM27.8221 19.267H27.7539V20.267H27.8221V19.267ZM27.2784 19.6124L25.0881 26.3453L26.039 26.6547L28.2294 19.9217L27.2784 19.6124ZM25.44 23.5696H30.1104V22.5696H25.44V23.5696ZM29.6104 23.0696V24.5099H30.6104V23.0696H29.6104ZM30.1104 24.0099H25.44V25.0099H30.1104V24.0099ZM25.94 24.5099V23.0696H24.94V24.5099H25.94ZM38.4126 20.5938L37.9321 20.732L38.0362 21.0938H38.4126V20.5938ZM38.1612 20.044L37.7452 20.3214L37.7475 20.3248L38.1612 20.044ZM37.7649 19.6349L37.4672 20.0368L37.4757 20.0428L37.7649 19.6349ZM37.2365 19.375L37.0909 19.8533L37.0928 19.8539L37.2365 19.375ZM35.4084 19.6179L35.1343 19.1997L35.1327 19.2008L35.4084 19.6179ZM34.6243 20.5852L35.0809 20.7889L35.0814 20.7877L34.6243 20.5852ZM35.4041 24.6548L35.1276 25.0714L35.13 25.073L35.4041 24.6548ZM37.6712 24.7656L37.8948 25.2128L37.8965 25.212L37.6712 24.7656ZM38.353 24.1307L37.9211 23.8787L37.9191 23.8821L38.353 24.1307ZM38.5916 23.1634L38.6647 22.6687L38.0916 22.5841V23.1634H38.5916ZM38.9666 23.2188V23.7188L39.0397 22.7241L38.9666 23.2188ZM36.7166 23.2188H36.2166V23.7188H36.7166V23.2188ZM36.7166 21.8295V21.3295H36.2166V21.8295H36.7166ZM40.3686 21.8295H40.8686V21.3295H40.3686V21.8295ZM39.8828 24.9062L40.3133 25.1605L40.3139 25.1596L39.8828 24.9062ZM38.5447 26.1761L38.7754 26.6197L38.7772 26.6188L38.5447 26.1761ZM34.4368 26.0781L34.1836 26.5093L34.1851 26.5102L34.4368 26.0781ZM32.9879 24.5312L32.543 24.7594L32.5442 24.7616L32.9879 24.5312ZM32.7791 20.2528L32.3106 20.0783L32.3101 20.0797L32.7791 20.2528ZM33.6484 18.8381L34.0085 19.1849L34.0085 19.1849L33.6484 18.8381ZM34.9482 17.956L34.7593 17.493L34.7593 17.493L34.9482 17.956ZM37.9354 17.8707L37.7744 18.3441L37.7773 18.3451L37.9354 17.8707ZM39.0689 18.4759L38.7582 18.8676L38.7598 18.8689L39.0689 18.4759ZM39.8828 19.4091L39.4508 19.6608L39.4517 19.6623L39.8828 19.4091ZM40.2876 20.5938V21.0938H40.8615L40.7829 20.5253L40.2876 20.5938ZM38.8932 20.4555C38.8207 20.2035 38.7159 19.971 38.575 19.7633L37.7475 20.3248C37.8224 20.4352 37.8853 20.5692 37.9321 20.732L38.8932 20.4555ZM38.5772 19.7667C38.4359 19.5547 38.2611 19.3738 38.0541 19.2271L37.4757 20.0428C37.5812 20.1176 37.6706 20.2095 37.7452 20.3214L38.5772 19.7667ZM38.0625 19.2332C37.8588 19.0822 37.6296 18.9709 37.3802 18.8961L37.0928 19.8539C37.2412 19.8984 37.3643 19.9604 37.4673 20.0367L38.0625 19.2332ZM37.3821 18.8967C37.1319 18.8205 36.8646 18.7855 36.5845 18.7855V19.7855C36.7817 19.7855 36.9491 19.8102 37.0909 19.8533L37.3821 18.8967ZM36.5845 18.7855C36.0516 18.7855 35.5621 18.9193 35.1343 19.1997L35.6825 20.0361C35.9308 19.8733 36.2254 19.7855 36.5845 19.7855V18.7855ZM35.1327 19.2008C34.7061 19.4827 34.3873 19.8856 34.1671 20.3827L35.0814 20.7877C35.2363 20.4382 35.4402 20.1962 35.6841 20.035L35.1327 19.2008ZM34.1676 20.3816C33.944 20.8832 33.843 21.4711 33.843 22.1278H34.843C34.843 21.5686 34.9296 21.1282 35.0809 20.7889L34.1676 20.3816ZM33.843 22.1278C33.843 22.784 33.9424 23.3727 34.1613 23.8778L35.0788 23.4802C34.9283 23.133 34.843 22.6876 34.843 22.1278H33.843ZM34.1613 23.8778C34.3786 24.3794 34.6978 24.7861 35.1276 25.0714L35.6807 24.2383C35.4343 24.0747 35.2307 23.8308 35.0788 23.4802L34.1613 23.8778ZM35.13 25.073C35.5604 25.3551 36.0578 25.4872 36.6016 25.4872V24.4872C36.2248 24.4872 35.9239 24.3977 35.6782 24.2367L35.13 25.073ZM36.6016 25.4872C37.0768 25.4872 37.514 25.4032 37.8948 25.2128L37.4476 24.3184C37.2374 24.4235 36.9615 24.4872 36.6016 24.4872V25.4872ZM37.8965 25.212C38.2764 25.0202 38.5788 24.7423 38.7868 24.3792L37.9191 23.8821C37.8147 24.0645 37.6626 24.2099 37.4459 24.3193L37.8965 25.212ZM38.7849 24.3826C38.996 24.0207 39.0916 23.6081 39.0916 23.1634H38.0916C38.0916 23.4629 38.0282 23.6952 37.9211 23.8787L38.7849 24.3826ZM38.5185 23.658L38.8935 23.7134L39.0397 22.7241L38.6647 22.6687L38.5185 23.658ZM38.9666 22.7188H36.7166V23.7188H38.9666V22.7188ZM37.2166 23.2188V21.8295H36.2166V23.2188H37.2166ZM36.7166 22.3295H40.3686V21.3295H36.7166V22.3295ZM39.8686 21.8295V22.929H40.8686V21.8295H39.8686ZM39.8686 22.929C39.8686 23.6248 39.7222 24.1926 39.4517 24.6529L40.3139 25.1596C40.6911 24.5176 40.8686 23.7672 40.8686 22.929H39.8686ZM39.4523 24.652C39.1761 25.1196 38.7989 25.478 38.3123 25.7334L38.7772 26.6188C39.4269 26.2777 39.9418 25.7895 40.3133 25.1605L39.4523 24.652ZM38.3141 25.7325C37.8268 25.9859 37.2574 26.1193 36.593 26.1193V27.1193C37.3946 27.1193 38.1263 26.9573 38.7754 26.6197L38.3141 25.7325ZM36.593 26.1193C35.8506 26.1193 35.2211 25.9564 34.6885 25.6461L34.1851 26.5102C34.8911 26.9215 35.6992 27.1193 36.593 27.1193V26.1193ZM34.69 25.647C34.1557 25.3333 33.7371 24.8891 33.4317 24.3009L32.5442 24.7616C32.932 25.5086 33.4792 26.0957 34.1836 26.5093L34.69 25.647ZM33.4329 24.3031C33.1325 23.7172 32.9723 23.0033 32.9723 22.1449H31.9723C31.9723 23.1273 32.1559 24.0044 32.543 24.7594L33.4329 24.3031ZM32.9723 22.1449C32.9723 21.4852 33.0677 20.9148 33.2482 20.426L32.3101 20.0797C32.0814 20.6988 31.9723 21.3898 31.9723 22.1449H32.9723ZM33.2477 20.4274C33.4337 19.9279 33.6889 19.5168 34.0085 19.1849L33.2883 18.4912C32.8637 18.932 32.5393 19.4642 32.3106 20.0783L33.2477 20.4274ZM34.0085 19.1849C34.3326 18.8485 34.7076 18.5941 35.1371 18.4189L34.7593 17.493C34.2001 17.7212 33.7086 18.0549 33.2883 18.4912L34.0085 19.1849ZM35.1371 18.4189C35.5667 18.2436 36.0375 18.1534 36.5547 18.1534V17.1534C35.9184 17.1534 35.3182 17.2649 34.7593 17.493L35.1371 18.4189ZM36.5547 18.1534C36.9996 18.1534 37.405 18.2185 37.7744 18.3441L38.0963 17.3974C37.6135 17.2332 37.0984 17.1534 36.5547 17.1534V18.1534ZM37.7773 18.3451C38.1519 18.47 38.4773 18.6448 38.7582 18.8676L39.3796 18.0841C39.0014 17.7841 38.5711 17.5556 38.0935 17.3964L37.7773 18.3451ZM38.7598 18.8689C39.0433 19.0918 39.2727 19.3551 39.4508 19.6608L40.3148 19.1574C40.0725 18.7414 39.7592 18.3826 39.378 18.0828L38.7598 18.8689ZM39.4517 19.6623C39.6269 19.9607 39.7412 20.2923 39.7923 20.6622L40.7829 20.5253C40.7147 20.0316 40.5592 19.5734 40.314 19.1559L39.4517 19.6623ZM40.2876 20.0938H38.4126V21.0938H40.2876V20.0938Z" fill="black" mask="url(#path-2-outside-1_242_23)"/>
</svg>
